<svg xmlns="http://www.w3.org/2000/svg" xmlns:xlink="http://www.w3.org/1999/xlink" width="300" zoomAndPan="magnify" viewBox="0 0 224.87999 225" height="300" preserveAspectRatio="xMidYMid meet" version="1.0"><defs><clipPath id="afc7d1fb71"><path d="M 0 0.0585938 L 224.761719 0.0585938 L 224.761719 224.9375 L 0 224.9375 Z M 0 0.0585938 " clip-rule="nonzero"/></clipPath></defs><g clip-path="url(#afc7d1fb71)"><path fill="#737373" d="M 112.441406 0.0585938 C 50.339844 0.0585938 0 50.402344 0 112.5 C 0 174.597656 50.339844 224.941406 112.441406 224.941406 C 174.539062 224.941406 224.878906 174.597656 224.878906 112.5 C 224.878906 50.402344 174.539062 0.0585938 112.441406 0.0585938 Z M 160.40625 159.605469 L 133.851562 159.605469 C 133.851562 171.433594 124.265625 181.019531 112.441406 181.019531 C 100.613281 181.019531 91.027344 171.433594 91.027344 159.605469 L 64.476562 159.605469 C 58.445312 159.605469 53.445312 154.71875 53.558594 148.691406 C 53.632812 144.8125 55.769531 141.441406 58.917969 139.621094 C 62.238281 137.703125 64.261719 134.136719 64.261719 130.300781 L 64.261719 105.542969 C 64.261719 83.53125 79.023438 64.96875 99.1875 59.210938 C 99.105469 58.609375 99.058594 57.992188 99.058594 57.363281 C 99.058594 49.972656 105.050781 43.980469 112.441406 43.980469 C 119.832031 43.980469 125.824219 49.972656 125.824219 57.363281 C 125.824219 57.992188 125.777344 58.605469 125.691406 59.210938 C 145.855469 64.96875 160.617188 83.53125 160.617188 105.542969 L 160.617188 130.296875 C 160.617188 134.136719 162.640625 137.703125 165.960938 139.621094 C 169.109375 141.441406 171.246094 144.8125 171.320312 148.691406 C 171.4375 154.71875 166.433594 159.605469 160.40625 159.605469 Z M 160.40625 159.605469 " fill-opacity="1" fill-rule="nonzero"/></g></svg>