<svg xmlns="http://www.w3.org/2000/svg" xmlns:xlink="http://www.w3.org/1999/xlink" width="300" zoomAndPan="magnify" viewBox="0 0 224.87999 225" height="300" preserveAspectRatio="xMidYMid meet" version="1.0"><defs><clipPath id="78c04247a0"><path d="M 0 200 L 224 200 L 224 218.988281 L 0 218.988281 Z M 0 200 " clip-rule="nonzero"/></clipPath><clipPath id="7be1a9cf8f"><path d="M 127 6.105469 L 224 6.105469 L 224 192 L 127 192 Z M 127 6.105469 " clip-rule="nonzero"/></clipPath></defs><path fill="#000000" d="M 44.753906 191.878906 L 6.40625 191.878906 C 3.019531 191.878906 0.238281 189.097656 0.238281 185.707031 L 0.238281 16.996094 C 0.238281 13.605469 3.019531 10.824219 6.40625 10.824219 L 44.753906 10.824219 C 48.140625 10.824219 50.925781 13.605469 50.925781 16.996094 L 50.925781 185.707031 C 50.925781 189.097656 48.140625 191.878906 44.753906 191.878906 Z M 44.753906 191.878906 " fill-opacity="1" fill-rule="nonzero"/><g clip-path="url(#78c04247a0)"><path fill="#000000" d="M 223.917969 204.226562 L 223.917969 215.601562 C 223.917969 217.539062 222.34375 218.988281 220.53125 218.988281 L 3.625 218.988281 C 1.6875 218.988281 0.238281 217.417969 0.238281 215.601562 L 0.238281 204.226562 C 0.238281 202.289062 1.808594 200.835938 3.625 200.835938 L 220.53125 200.835938 C 222.464844 200.835938 223.917969 202.410156 223.917969 204.226562 Z M 223.917969 204.226562 " fill-opacity="1" fill-rule="nonzero"/></g><path fill="#000000" d="M 109.476562 191.878906 L 71.128906 191.878906 C 67.738281 191.878906 64.957031 189.097656 64.957031 185.707031 L 64.957031 16.996094 C 64.957031 13.605469 67.738281 10.824219 71.128906 10.824219 L 109.476562 10.824219 C 112.863281 10.824219 115.644531 13.605469 115.644531 16.996094 L 115.644531 185.707031 C 115.523438 189.097656 112.863281 191.878906 109.476562 191.878906 Z M 109.476562 191.878906 " fill-opacity="1" fill-rule="nonzero"/><g clip-path="url(#7be1a9cf8f)"><path fill="#000000" d="M 219.5625 180.746094 L 182.785156 191.515625 C 179.519531 192.484375 176.132812 190.667969 175.164062 187.402344 L 127.5 25.589844 C 126.535156 22.320312 128.347656 18.933594 131.613281 17.964844 L 168.390625 7.070312 C 171.65625 6.105469 175.042969 7.917969 176.011719 11.1875 L 223.675781 173.121094 C 224.644531 176.386719 222.828125 179.777344 219.5625 180.746094 Z M 219.5625 180.746094 " fill-opacity="1" fill-rule="nonzero"/></g></svg>