<svg xmlns="http://www.w3.org/2000/svg" xmlns:xlink="http://www.w3.org/1999/xlink" width="300" zoomAndPan="magnify" viewBox="0 0 224.87999 225" height="300" preserveAspectRatio="xMidYMid meet" version="1.0"><defs><clipPath id="16ab6b269f"><path d="M 0 0.0585938 L 224.761719 0.0585938 L 224.761719 224.9375 L 0 224.9375 Z M 0 0.0585938 " clip-rule="nonzero"/></clipPath><clipPath id="0d92ec61f4"><path d="M 112.441406 0.0585938 C 50.339844 0.0585938 0 50.402344 0 112.5 C 0 174.597656 50.339844 224.941406 112.441406 224.941406 C 174.539062 224.941406 224.878906 174.597656 224.878906 112.5 C 224.878906 50.402344 174.539062 0.0585938 112.441406 0.0585938 Z M 112.441406 0.0585938 " clip-rule="nonzero"/></clipPath><clipPath id="718f3c76e6"><path d="M 47.824219 54 L 78 54 L 78 158 L 47.824219 158 Z M 47.824219 54 " clip-rule="nonzero"/></clipPath><clipPath id="dbed09c3cd"><path d="M 47.824219 163 L 176.757812 163 L 176.757812 173.542969 L 47.824219 173.542969 Z M 47.824219 163 " clip-rule="nonzero"/></clipPath><clipPath id="0b01b8f296"><path d="M 120 51.359375 L 176.757812 51.359375 L 176.757812 158 L 120 158 Z M 120 51.359375 " clip-rule="nonzero"/></clipPath></defs><g clip-path="url(#16ab6b269f)"><g clip-path="url(#0d92ec61f4)"><path fill="#737373" d="M 0 0.0585938 L 224.878906 0.0585938 L 224.878906 224.941406 L 0 224.941406 Z M 0 0.0585938 " fill-opacity="1" fill-rule="nonzero"/></g></g><g clip-path="url(#718f3c76e6)"><path fill="#ffffff" d="M 73.484375 157.984375 L 51.5 157.984375 C 49.554688 157.984375 47.960938 156.386719 47.960938 154.441406 L 47.960938 57.609375 C 47.960938 55.664062 49.554688 54.066406 51.5 54.066406 L 73.484375 54.066406 C 75.425781 54.066406 77.023438 55.664062 77.023438 57.609375 L 77.023438 154.441406 C 77.023438 156.386719 75.425781 157.984375 73.484375 157.984375 Z M 73.484375 157.984375 " fill-opacity="1" fill-rule="nonzero"/></g><g clip-path="url(#dbed09c3cd)"><path fill="#ffffff" d="M 176.203125 165.070312 L 176.203125 171.597656 C 176.203125 172.710938 175.304688 173.542969 174.261719 173.542969 L 49.902344 173.542969 C 48.792969 173.542969 47.960938 172.640625 47.960938 171.597656 L 47.960938 165.070312 C 47.960938 163.957031 48.863281 163.125 49.902344 163.125 L 174.261719 163.125 C 175.371094 163.125 176.203125 164.027344 176.203125 165.070312 Z M 176.203125 165.070312 " fill-opacity="1" fill-rule="nonzero"/></g><path fill="#ffffff" d="M 110.59375 157.984375 L 88.605469 157.984375 C 86.664062 157.984375 85.066406 156.386719 85.066406 154.441406 L 85.066406 57.609375 C 85.066406 55.664062 86.664062 54.066406 88.605469 54.066406 L 110.59375 54.066406 C 112.535156 54.066406 114.128906 55.664062 114.128906 57.609375 L 114.128906 154.441406 C 114.058594 156.386719 112.535156 157.984375 110.59375 157.984375 Z M 110.59375 157.984375 " fill-opacity="1" fill-rule="nonzero"/><g clip-path="url(#0b01b8f296)"><path fill="#ffffff" d="M 173.707031 151.59375 L 152.625 157.773438 C 150.75 158.332031 148.808594 157.289062 148.253906 155.414062 L 120.925781 62.542969 C 120.371094 60.667969 121.410156 58.722656 123.285156 58.164062 L 144.371094 51.914062 C 146.242188 51.359375 148.183594 52.402344 148.738281 54.277344 L 176.066406 147.21875 C 176.621094 149.09375 175.582031 151.039062 173.707031 151.59375 Z M 173.707031 151.59375 " fill-opacity="1" fill-rule="nonzero"/></g></svg>