<svg xmlns="http://www.w3.org/2000/svg" xmlns:xlink="http://www.w3.org/1999/xlink" width="300" zoomAndPan="magnify" viewBox="0 0 224.87999 225" height="300" preserveAspectRatio="xMidYMid meet" version="1.0"><defs><clipPath id="7ff9f24894"><path d="M 29 0.0585938 L 196 0.0585938 L 196 224.9375 L 29 224.9375 Z M 29 0.0585938 " clip-rule="nonzero"/></clipPath></defs><g clip-path="url(#7ff9f24894)"><path fill="#000000" d="M 195.9375 4.671875 L 195.9375 194.117188 C 195.9375 194.421875 195.90625 194.71875 195.847656 195.015625 C 195.789062 195.3125 195.699219 195.601562 195.582031 195.882812 C 195.46875 196.160156 195.324219 196.425781 195.15625 196.679688 C 194.988281 196.929688 194.796875 197.164062 194.582031 197.375 C 194.367188 197.589844 194.136719 197.78125 193.882812 197.949219 C 193.632812 198.117188 193.367188 198.261719 193.085938 198.375 C 192.804688 198.492188 192.519531 198.578125 192.222656 198.636719 C 191.925781 198.699219 191.625 198.726562 191.320312 198.726562 L 45.945312 198.726562 C 45.324219 198.726562 44.714844 198.789062 44.105469 198.910156 C 43.5 199.03125 42.910156 199.207031 42.339844 199.445312 C 41.769531 199.679688 41.226562 199.96875 40.710938 200.3125 C 40.195312 200.65625 39.722656 201.046875 39.285156 201.484375 C 38.847656 201.921875 38.457031 202.394531 38.113281 202.910156 C 37.769531 203.421875 37.476562 203.964844 37.242188 204.535156 C 37.003906 205.105469 36.824219 205.695312 36.707031 206.300781 C 36.585938 206.90625 36.523438 207.519531 36.523438 208.136719 C 36.523438 208.753906 36.585938 209.367188 36.707031 209.972656 C 36.824219 210.578125 37.003906 211.167969 37.242188 211.738281 C 37.476562 212.308594 37.769531 212.851562 38.113281 213.363281 C 38.457031 213.878906 38.847656 214.351562 39.285156 214.789062 C 39.722656 215.226562 40.195312 215.617188 40.710938 215.960938 C 41.226562 216.304688 41.769531 216.59375 42.339844 216.828125 C 42.910156 217.066406 43.5 217.246094 44.105469 217.363281 C 44.714844 217.484375 45.324219 217.546875 45.945312 217.546875 L 187.667969 217.546875 C 188.160156 217.546875 188.632812 217.640625 189.085938 217.828125 C 189.539062 218.015625 189.9375 218.28125 190.285156 218.628906 C 190.632812 218.976562 190.902344 219.375 191.089844 219.828125 C 191.277344 220.28125 191.371094 220.753906 191.371094 221.242188 C 191.371094 221.734375 191.277344 222.203125 191.089844 222.65625 C 190.902344 223.109375 190.632812 223.511719 190.285156 223.855469 C 189.9375 224.203125 189.539062 224.472656 189.085938 224.660156 C 188.632812 224.847656 188.160156 224.941406 187.667969 224.941406 L 45.945312 224.941406 C 44.410156 224.9375 42.90625 224.734375 41.425781 224.320312 C 39.949219 223.910156 38.554688 223.308594 37.242188 222.515625 C 35.929688 221.722656 34.75 220.769531 33.695312 219.652344 C 32.644531 218.535156 31.761719 217.300781 31.050781 215.945312 C 30.453125 215.621094 29.984375 215.167969 29.640625 214.585938 C 29.292969 214.003906 29.121094 213.375 29.121094 212.699219 L 29.121094 20.167969 C 29.121094 19.511719 29.15625 18.855469 29.222656 18.199219 C 29.285156 17.542969 29.382812 16.894531 29.511719 16.246094 C 29.640625 15.601562 29.800781 14.964844 29.992188 14.335938 C 30.1875 13.703125 30.40625 13.085938 30.660156 12.476562 C 30.914062 11.867188 31.195312 11.273438 31.503906 10.695312 C 31.816406 10.113281 32.15625 9.550781 32.523438 9.003906 C 32.886719 8.453125 33.28125 7.925781 33.699219 7.417969 C 34.117188 6.910156 34.558594 6.421875 35.023438 5.957031 C 35.492188 5.492188 35.980469 5.050781 36.488281 4.632812 C 36.996094 4.214844 37.527344 3.820312 38.074219 3.457031 C 38.621094 3.089844 39.1875 2.75 39.769531 2.441406 C 40.347656 2.128906 40.945312 1.847656 41.554688 1.597656 C 42.160156 1.34375 42.78125 1.121094 43.414062 0.929688 C 44.042969 0.738281 44.679688 0.578125 45.328125 0.449219 C 45.972656 0.320312 46.625 0.222656 47.28125 0.160156 C 47.9375 0.09375 48.59375 0.0625 49.253906 0.0585938 L 191.320312 0.0585938 C 191.625 0.0585938 191.925781 0.0898438 192.222656 0.148438 C 192.519531 0.207031 192.808594 0.296875 193.085938 0.414062 C 193.367188 0.527344 193.632812 0.671875 193.882812 0.839844 C 194.136719 1.007812 194.367188 1.199219 194.582031 1.410156 C 194.796875 1.625 194.988281 1.859375 195.15625 2.109375 C 195.324219 2.363281 195.46875 2.628906 195.582031 2.90625 C 195.699219 3.1875 195.789062 3.472656 195.847656 3.769531 C 195.90625 4.066406 195.9375 4.367188 195.9375 4.671875 Z M 195.9375 4.671875 " fill-opacity="1" fill-rule="nonzero"/></g></svg>