<svg xmlns="http://www.w3.org/2000/svg" xmlns:xlink="http://www.w3.org/1999/xlink" width="300" zoomAndPan="magnify" viewBox="0 0 224.87999 225" height="300" preserveAspectRatio="xMidYMid meet" version="1.0"><defs><clipPath id="47646d5283"><path d="M 0 0.0585938 L 224.761719 0.0585938 L 224.761719 224.9375 L 0 224.9375 Z M 0 0.0585938 " clip-rule="nonzero"/></clipPath></defs><g clip-path="url(#47646d5283)"><path fill="#000000" d="M 112.441406 224.941406 C 174.539062 224.941406 224.878906 174.597656 224.878906 112.5 C 224.878906 50.402344 174.539062 0.0585938 112.441406 0.0585938 C 50.339844 0.0585938 0 50.402344 0 112.5 C 0 174.597656 50.339844 224.941406 112.441406 224.941406 Z M 101.863281 58.527344 C 95.046875 58.527344 88.820312 62.378906 85.769531 68.472656 L 83.40625 73.203125 C 82.390625 75.234375 80.3125 76.519531 78.042969 76.519531 L 70.460938 76.519531 C 60.527344 76.519531 52.472656 84.574219 52.472656 94.507812 L 52.472656 148.480469 C 52.472656 158.417969 60.527344 166.472656 70.460938 166.472656 L 154.417969 166.472656 C 164.355469 166.472656 172.40625 158.417969 172.40625 148.480469 L 172.40625 94.507812 C 172.40625 84.574219 164.355469 76.519531 154.417969 76.519531 L 146.839844 76.519531 C 144.566406 76.519531 142.488281 75.234375 141.472656 73.203125 L 139.109375 68.472656 C 136.0625 62.378906 129.832031 58.527344 123.019531 58.527344 Z M 112.441406 100.507812 C 102.503906 100.507812 94.449219 108.5625 94.449219 118.496094 C 94.449219 128.433594 102.503906 136.488281 112.441406 136.488281 C 122.375 136.488281 130.429688 128.433594 130.429688 118.496094 C 130.429688 108.5625 122.375 100.507812 112.441406 100.507812 Z M 82.457031 118.496094 C 82.457031 101.9375 95.878906 88.511719 112.441406 88.511719 C 129 88.511719 142.425781 101.9375 142.425781 118.496094 C 142.425781 135.054688 129 148.480469 112.441406 148.480469 C 95.878906 148.480469 82.457031 135.054688 82.457031 118.496094 Z M 82.457031 118.496094 " fill-opacity="1" fill-rule="evenodd"/></g></svg>