<svg xmlns="http://www.w3.org/2000/svg" xmlns:xlink="http://www.w3.org/1999/xlink" width="300" zoomAndPan="magnify" viewBox="0 0 224.87999 225" height="300" preserveAspectRatio="xMidYMid meet" version="1.0"><defs><clipPath id="bdeb16b4d3"><path d="M 27 60 L 199 60 L 199 214.960938 L 27 214.960938 Z M 27 60 " clip-rule="nonzero"/></clipPath></defs><path fill="#737373" d="M 215.441406 82.195312 L 180.828125 56.699219 L 180.828125 26.285156 C 180.828125 21.519531 176.964844 17.660156 172.210938 17.660156 L 158.203125 17.660156 C 153.441406 17.660156 149.582031 21.523438 149.582031 26.285156 L 149.582031 33.675781 L 123.191406 14.238281 C 117.464844 10.007812 108.089844 10.007812 102.363281 14.238281 L 10.113281 82.195312 C 4.386719 86.414062 3.152344 94.566406 7.367188 100.308594 L 9.917969 103.773438 C 14.125 109.511719 22.265625 110.757812 27.984375 106.535156 L 102.363281 51.722656 C 108.089844 47.5 117.464844 47.5 123.191406 51.722656 L 197.5625 106.535156 C 203.289062 110.757812 211.421875 109.507812 215.632812 103.773438 L 218.1875 100.308594 C 222.394531 94.566406 221.160156 86.414062 215.441406 82.195312 Z M 215.441406 82.195312 " fill-opacity="1" fill-rule="nonzero"/><g clip-path="url(#bdeb16b4d3)"><path fill="#737373" d="M 187.84375 111.304688 L 123.171875 63.4375 C 117.453125 59.203125 108.101562 59.203125 102.382812 63.4375 L 37.710938 111.304688 C 31.992188 115.539062 27.308594 121.730469 27.308594 125.085938 L 27.308594 194.484375 C 27.308594 205.75 36.953125 214.886719 48.859375 214.886719 L 88.355469 214.886719 L 88.355469 153.5 C 88.355469 148.761719 92.234375 144.882812 96.96875 144.882812 L 128.574219 144.882812 C 133.308594 144.882812 137.1875 148.761719 137.1875 153.5 L 137.1875 214.886719 L 176.6875 214.886719 C 188.585938 214.886719 198.222656 205.75 198.222656 194.484375 L 198.222656 125.085938 C 198.230469 121.730469 193.5625 115.539062 187.84375 111.304688 Z M 187.84375 111.304688 " fill-opacity="1" fill-rule="nonzero"/></g></svg>