<svg xmlns="http://www.w3.org/2000/svg" xmlns:xlink="http://www.w3.org/1999/xlink" width="300" zoomAndPan="magnify" viewBox="0 0 224.87999 225" height="300" preserveAspectRatio="xMidYMid meet" version="1.0"><defs><clipPath id="d8a33ebd6d"><path d="M 0 0.0585938 L 224.761719 0.0585938 L 224.761719 224.9375 L 0 224.9375 Z M 0 0.0585938 " clip-rule="nonzero"/></clipPath></defs><g clip-path="url(#d8a33ebd6d)"><path fill="#000000" d="M 112.441406 0.0585938 C 110.601562 0.0585938 108.761719 0.105469 106.921875 0.195312 C 105.085938 0.285156 103.25 0.421875 101.417969 0.601562 C 99.585938 0.78125 97.761719 1.007812 95.941406 1.277344 C 94.121094 1.546875 92.308594 1.863281 90.503906 2.21875 C 88.699219 2.578125 86.90625 2.984375 85.121094 3.429688 C 83.335938 3.875 81.5625 4.367188 79.800781 4.902344 C 78.039062 5.4375 76.292969 6.011719 74.558594 6.632812 C 72.828125 7.253906 71.109375 7.914062 69.410156 8.617188 C 67.710938 9.324219 66.027344 10.070312 64.367188 10.855469 C 62.703125 11.640625 61.058594 12.46875 59.4375 13.335938 C 57.8125 14.203125 56.210938 15.109375 54.632812 16.058594 C 53.054688 17.003906 51.5 17.988281 49.972656 19.007812 C 48.441406 20.03125 46.9375 21.089844 45.460938 22.1875 C 43.980469 23.285156 42.53125 24.414062 41.109375 25.582031 C 39.6875 26.75 38.292969 27.953125 36.929688 29.1875 C 35.566406 30.421875 34.234375 31.691406 32.933594 32.992188 C 31.632812 34.292969 30.363281 35.625 29.128906 36.988281 C 27.890625 38.351562 26.691406 39.746094 25.523438 41.167969 C 24.355469 42.589844 23.222656 44.042969 22.128906 45.519531 C 21.03125 46.996094 19.972656 48.5 18.949219 50.03125 C 17.925781 51.5625 16.941406 53.117188 15.996094 54.695312 C 15.050781 56.273438 14.144531 57.875 13.277344 59.496094 C 12.410156 61.117188 11.582031 62.761719 10.796875 64.425781 C 10.007812 66.089844 9.261719 67.769531 8.558594 69.472656 C 7.855469 71.171875 7.191406 72.886719 6.574219 74.621094 C 5.953125 76.351562 5.375 78.097656 4.839844 79.859375 C 4.308594 81.621094 3.816406 83.394531 3.371094 85.179688 C 2.921875 86.964844 2.519531 88.757812 2.160156 90.5625 C 1.800781 92.367188 1.488281 94.179688 1.21875 96 C 0.945312 97.820312 0.722656 99.648438 0.542969 101.480469 C 0.359375 103.308594 0.226562 105.144531 0.136719 106.984375 C 0.046875 108.820312 0 110.660156 0 112.5 C 0 114.339844 0.046875 116.179688 0.136719 118.015625 C 0.226562 119.855469 0.359375 121.691406 0.542969 123.519531 C 0.722656 125.351562 0.945312 127.179688 1.21875 129 C 1.488281 130.820312 1.800781 132.632812 2.160156 134.4375 C 2.519531 136.242188 2.921875 138.035156 3.371094 139.820312 C 3.816406 141.605469 4.308594 143.378906 4.839844 145.140625 C 5.375 146.902344 5.953125 148.648438 6.574219 150.378906 C 7.191406 152.113281 7.855469 153.828125 8.558594 155.527344 C 9.261719 157.230469 10.007812 158.910156 10.796875 160.574219 C 11.582031 162.238281 12.410156 163.882812 13.277344 165.503906 C 14.144531 167.125 15.050781 168.726562 15.996094 170.304688 C 16.941406 171.882812 17.925781 173.4375 18.949219 174.96875 C 19.972656 176.5 21.03125 178.003906 22.128906 179.480469 C 23.222656 180.957031 24.355469 182.410156 25.523438 183.832031 C 26.691406 185.253906 27.890625 186.648438 29.128906 188.011719 C 30.363281 189.375 31.632812 190.707031 32.933594 192.007812 C 34.234375 193.308594 35.566406 194.578125 36.929688 195.8125 C 38.292969 197.046875 39.6875 198.25 41.109375 199.417969 C 42.53125 200.585938 43.980469 201.714844 45.460938 202.8125 C 46.9375 203.910156 48.441406 204.96875 49.972656 205.992188 C 51.5 207.011719 53.054688 207.996094 54.632812 208.941406 C 56.210938 209.890625 57.8125 210.796875 59.4375 211.664062 C 61.058594 212.53125 62.703125 213.359375 64.367188 214.144531 C 66.027344 214.929688 67.710938 215.675781 69.410156 216.382812 C 71.109375 217.085938 72.828125 217.746094 74.558594 218.367188 C 76.292969 218.988281 78.039062 219.5625 79.800781 220.097656 C 81.5625 220.632812 83.335938 221.125 85.121094 221.570312 C 86.90625 222.015625 88.699219 222.421875 90.503906 222.78125 C 92.308594 223.136719 94.121094 223.453125 95.941406 223.722656 C 97.761719 223.992188 99.585938 224.21875 101.417969 224.398438 C 103.25 224.578125 105.085938 224.714844 106.921875 224.804688 C 108.761719 224.894531 110.601562 224.941406 112.441406 224.941406 C 114.28125 224.941406 116.121094 224.894531 117.957031 224.804688 C 119.796875 224.714844 121.628906 224.578125 123.460938 224.398438 C 125.292969 224.21875 127.117188 223.992188 128.9375 223.722656 C 130.757812 223.453125 132.570312 223.136719 134.375 222.78125 C 136.179688 222.421875 137.976562 222.015625 139.761719 221.570312 C 141.546875 221.125 143.320312 220.632812 145.078125 220.097656 C 146.839844 219.5625 148.585938 218.988281 150.320312 218.367188 C 152.050781 217.746094 153.769531 217.085938 155.46875 216.382812 C 157.167969 215.675781 158.851562 214.929688 160.515625 214.144531 C 162.179688 213.359375 163.820312 212.53125 165.445312 211.664062 C 167.066406 210.796875 168.667969 209.890625 170.246094 208.941406 C 171.824219 207.996094 173.378906 207.011719 174.910156 205.992188 C 176.4375 204.96875 177.941406 203.910156 179.421875 202.8125 C 180.898438 201.714844 182.347656 200.585938 183.769531 199.417969 C 185.195312 198.25 186.585938 197.046875 187.949219 195.8125 C 189.3125 194.578125 190.644531 193.308594 191.945312 192.007812 C 193.25 190.707031 194.515625 189.375 195.753906 188.011719 C 196.988281 186.648438 198.191406 185.253906 199.355469 183.832031 C 200.523438 182.410156 201.65625 180.957031 202.753906 179.480469 C 203.847656 178.003906 204.90625 176.5 205.929688 174.96875 C 206.953125 173.4375 207.9375 171.882812 208.882812 170.304688 C 209.828125 168.726562 210.734375 167.125 211.601562 165.503906 C 212.46875 163.882812 213.296875 162.238281 214.085938 160.574219 C 214.871094 158.910156 215.617188 157.230469 216.320312 155.527344 C 217.023438 153.828125 217.6875 152.113281 218.308594 150.378906 C 218.925781 148.648438 219.503906 146.902344 220.039062 145.140625 C 220.574219 143.378906 221.0625 141.605469 221.511719 139.820312 C 221.957031 138.035156 222.359375 136.242188 222.71875 134.4375 C 223.078125 132.632812 223.394531 130.820312 223.664062 129 C 223.933594 127.179688 224.15625 125.351562 224.339844 123.519531 C 224.519531 121.691406 224.652344 119.855469 224.746094 118.015625 C 224.835938 116.179688 224.878906 114.339844 224.878906 112.5 C 224.878906 110.660156 224.835938 108.820312 224.742188 106.984375 C 224.652344 105.144531 224.519531 103.3125 224.335938 101.480469 C 224.15625 99.648438 223.929688 97.824219 223.660156 96.003906 C 223.390625 94.183594 223.078125 92.371094 222.71875 90.566406 C 222.359375 88.761719 221.953125 86.964844 221.507812 85.179688 C 221.058594 83.394531 220.570312 81.621094 220.035156 79.863281 C 219.5 78.101562 218.921875 76.355469 218.304688 74.621094 C 217.683594 72.890625 217.023438 71.171875 216.316406 69.472656 C 215.613281 67.773438 214.867188 66.089844 214.082031 64.429688 C 213.292969 62.765625 212.464844 61.121094 211.597656 59.5 C 210.730469 57.875 209.824219 56.277344 208.878906 54.699219 C 207.933594 53.117188 206.949219 51.566406 205.925781 50.035156 C 204.902344 48.503906 203.84375 47 202.75 45.523438 C 201.652344 44.046875 200.519531 42.59375 199.351562 41.171875 C 198.1875 39.75 196.984375 38.355469 195.75 36.992188 C 194.511719 35.628906 193.242188 34.296875 191.941406 32.996094 C 190.640625 31.695312 189.308594 30.425781 187.945312 29.191406 C 186.582031 27.957031 185.191406 26.753906 183.765625 25.585938 C 182.34375 24.417969 180.894531 23.289062 179.417969 22.191406 C 177.9375 21.09375 176.433594 20.035156 174.90625 19.015625 C 173.375 17.992188 171.820312 17.007812 170.242188 16.0625 C 168.664062 15.113281 167.0625 14.207031 165.441406 13.339844 C 163.816406 12.472656 162.175781 11.644531 160.511719 10.859375 C 158.847656 10.074219 157.167969 9.328125 155.464844 8.621094 C 153.765625 7.917969 152.050781 7.257812 150.316406 6.636719 C 148.585938 6.015625 146.839844 5.4375 145.078125 4.90625 C 143.316406 4.371094 141.542969 3.878906 139.757812 3.433594 C 137.972656 2.984375 136.179688 2.582031 134.375 2.222656 C 132.570312 1.863281 130.757812 1.550781 128.9375 1.277344 C 127.117188 1.007812 125.292969 0.785156 123.460938 0.601562 C 121.628906 0.421875 119.792969 0.285156 117.957031 0.195312 C 116.117188 0.105469 114.28125 0.0585938 112.441406 0.0585938 Z M 60.648438 57.019531 L 164.234375 57.019531 C 165.328125 57.015625 166.417969 57.113281 167.496094 57.308594 C 168.574219 57.5 169.628906 57.789062 170.65625 58.167969 C 171.6875 58.550781 172.671875 59.019531 173.617188 59.574219 C 174.5625 60.132812 175.449219 60.765625 176.28125 61.480469 C 177.113281 62.195312 177.875 62.980469 178.566406 63.828125 C 179.257812 64.679688 179.871094 65.585938 180.402344 66.542969 C 180.933594 67.503906 181.375 68.503906 181.726562 69.539062 C 182.082031 70.578125 182.339844 71.640625 182.503906 72.722656 C 181.027344 73.53125 124.105469 106.351562 120.347656 108.496094 C 119.140625 109.175781 117.867188 109.695312 116.527344 110.046875 C 115.1875 110.398438 113.824219 110.574219 112.441406 110.574219 C 111.054688 110.574219 109.691406 110.398438 108.351562 110.046875 C 107.011719 109.695312 105.738281 109.175781 104.535156 108.496094 C 100.84375 106.386719 43.78125 73.882812 42.375 73.003906 C 42.523438 71.90625 42.765625 70.832031 43.109375 69.777344 C 43.449219 68.726562 43.878906 67.710938 44.40625 66.734375 C 44.929688 65.761719 45.535156 64.839844 46.222656 63.972656 C 46.914062 63.105469 47.675781 62.308594 48.507812 61.578125 C 49.339844 60.851562 50.234375 60.203125 51.183594 59.632812 C 52.132812 59.066406 53.128906 58.585938 54.164062 58.195312 C 55.199219 57.808594 56.261719 57.511719 57.351562 57.316406 C 58.441406 57.117188 59.539062 57.019531 60.648438 57.019531 Z M 182.714844 149.5 C 182.714844 150.105469 182.683594 150.707031 182.625 151.3125 C 182.5625 151.914062 182.476562 152.511719 182.355469 153.105469 C 182.238281 153.699219 182.089844 154.285156 181.914062 154.863281 C 181.738281 155.441406 181.535156 156.011719 181.300781 156.570312 C 181.070312 157.128906 180.8125 157.675781 180.527344 158.207031 C 180.242188 158.742188 179.929688 159.257812 179.59375 159.761719 C 179.257812 160.265625 178.898438 160.75 178.511719 161.21875 C 178.128906 161.6875 177.722656 162.132812 177.296875 162.5625 C 176.867188 162.988281 176.417969 163.394531 175.953125 163.78125 C 175.484375 164.164062 175 164.523438 174.496094 164.859375 C 173.992188 165.195312 173.472656 165.507812 172.941406 165.792969 C 172.40625 166.078125 171.859375 166.335938 171.300781 166.570312 C 170.742188 166.800781 170.175781 167.003906 169.59375 167.179688 C 169.015625 167.355469 168.429688 167.503906 167.835938 167.625 C 167.242188 167.742188 166.644531 167.832031 166.042969 167.890625 C 165.441406 167.949219 164.835938 167.980469 164.234375 167.980469 L 60.648438 167.980469 C 60.042969 167.980469 59.4375 167.949219 58.835938 167.890625 C 58.234375 167.832031 57.636719 167.742188 57.042969 167.625 C 56.449219 167.503906 55.863281 167.355469 55.285156 167.179688 C 54.707031 167.003906 54.136719 166.800781 53.578125 166.570312 C 53.019531 166.335938 52.472656 166.078125 51.9375 165.792969 C 51.40625 165.507812 50.886719 165.195312 50.382812 164.859375 C 49.882812 164.523438 49.394531 164.164062 48.929688 163.78125 C 48.460938 163.394531 48.011719 162.988281 47.585938 162.5625 C 47.15625 162.132812 46.75 161.6875 46.367188 161.21875 C 45.984375 160.75 45.625 160.265625 45.285156 159.761719 C 44.949219 159.257812 44.640625 158.742188 44.355469 158.207031 C 44.070312 157.675781 43.808594 157.128906 43.578125 156.570312 C 43.347656 156.011719 43.140625 155.441406 42.964844 154.863281 C 42.789062 154.285156 42.640625 153.699219 42.523438 153.105469 C 42.40625 152.511719 42.316406 151.914062 42.257812 151.3125 C 42.195312 150.707031 42.164062 150.105469 42.164062 149.5 L 42.164062 81.402344 L 100.914062 114.925781 C 102.671875 115.925781 104.53125 116.6875 106.488281 117.203125 C 108.445312 117.722656 110.433594 117.980469 112.457031 117.980469 C 114.480469 117.980469 116.472656 117.722656 118.429688 117.203125 C 120.382812 116.6875 122.242188 115.925781 124 114.925781 L 182.714844 81.121094 Z M 182.714844 149.5 " fill-opacity="1" fill-rule="nonzero"/></g></svg>