<svg xmlns="http://www.w3.org/2000/svg" xmlns:xlink="http://www.w3.org/1999/xlink" width="300" zoomAndPan="magnify" viewBox="0 0 224.87999 225" height="300" preserveAspectRatio="xMidYMid meet" version="1.0"><defs><clipPath id="9576776399"><path d="M 0 0.0585938 L 224.761719 0.0585938 L 224.761719 224.9375 L 0 224.9375 Z M 0 0.0585938 " clip-rule="nonzero"/></clipPath></defs><g clip-path="url(#9576776399)"><path fill="#000000" d="M 224.886719 112.5 C 224.886719 114.339844 224.839844 116.179688 224.75 118.015625 C 224.660156 119.855469 224.523438 121.691406 224.34375 123.519531 C 224.164062 125.351562 223.9375 127.179688 223.667969 129 C 223.398438 130.820312 223.082031 132.632812 222.726562 134.4375 C 222.367188 136.242188 221.960938 138.035156 221.515625 139.820312 C 221.066406 141.605469 220.578125 143.378906 220.042969 145.140625 C 219.507812 146.902344 218.933594 148.648438 218.3125 150.378906 C 217.691406 152.113281 217.03125 153.828125 216.324219 155.527344 C 215.621094 157.230469 214.875 158.910156 214.089844 160.574219 C 213.304688 162.238281 212.476562 163.882812 211.609375 165.503906 C 210.742188 167.125 209.835938 168.726562 208.886719 170.304688 C 207.941406 171.882812 206.957031 173.4375 205.9375 174.96875 C 204.914062 176.5 203.855469 178.003906 202.757812 179.480469 C 201.660156 180.957031 200.53125 182.410156 199.363281 183.832031 C 198.195312 185.253906 196.992188 186.648438 195.757812 188.011719 C 194.523438 189.375 193.253906 190.707031 191.953125 192.007812 C 190.652344 193.308594 189.320312 194.578125 187.957031 195.8125 C 186.589844 197.046875 185.199219 198.25 183.777344 199.417969 C 182.355469 200.585938 180.902344 201.714844 179.425781 202.8125 C 177.949219 203.910156 176.445312 204.96875 174.914062 205.992188 C 173.382812 207.011719 171.828125 207.996094 170.25 208.941406 C 168.671875 209.890625 167.070312 210.796875 165.449219 211.664062 C 163.824219 212.53125 162.183594 213.359375 160.519531 214.144531 C 158.855469 214.929688 157.175781 215.675781 155.472656 216.382812 C 153.773438 217.085938 152.058594 217.746094 150.324219 218.367188 C 148.59375 218.988281 146.84375 219.5625 145.085938 220.097656 C 143.324219 220.632812 141.550781 221.125 139.765625 221.570312 C 137.980469 222.015625 136.1875 222.421875 134.382812 222.78125 C 132.578125 223.136719 130.765625 223.453125 128.945312 223.722656 C 127.125 223.992188 125.296875 224.21875 123.464844 224.398438 C 121.636719 224.578125 119.800781 224.714844 117.960938 224.804688 C 116.125 224.894531 114.285156 224.941406 112.445312 224.941406 C 110.605469 224.941406 108.765625 224.894531 106.929688 224.804688 C 105.089844 224.714844 103.253906 224.578125 101.425781 224.398438 C 99.59375 224.21875 97.765625 223.992188 95.945312 223.722656 C 94.125 223.453125 92.3125 223.136719 90.507812 222.78125 C 88.703125 222.421875 86.910156 222.015625 85.125 221.570312 C 83.339844 221.125 81.566406 220.632812 79.804688 220.097656 C 78.042969 219.5625 76.296875 218.988281 74.566406 218.367188 C 72.832031 217.746094 71.117188 217.085938 69.417969 216.382812 C 67.714844 215.675781 66.035156 214.929688 64.371094 214.144531 C 62.707031 213.359375 61.0625 212.53125 59.441406 211.664062 C 57.820312 210.796875 56.21875 209.890625 54.640625 208.941406 C 53.0625 207.996094 51.507812 207.011719 49.976562 205.992188 C 48.445312 204.96875 46.941406 203.910156 45.464844 202.8125 C 43.988281 201.714844 42.535156 200.585938 41.113281 199.417969 C 39.691406 198.25 38.296875 197.046875 36.933594 195.8125 C 35.570312 194.578125 34.238281 193.308594 32.9375 192.007812 C 31.636719 190.707031 30.367188 189.375 29.132812 188.011719 C 27.898438 186.648438 26.695312 185.253906 25.527344 183.832031 C 24.359375 182.410156 23.230469 180.957031 22.132812 179.480469 C 21.035156 178.003906 19.976562 176.5 18.953125 174.96875 C 17.933594 173.4375 16.949219 171.882812 16.003906 170.304688 C 15.054688 168.726562 14.148438 167.125 13.28125 165.503906 C 12.414062 163.882812 11.585938 162.238281 10.800781 160.574219 C 10.015625 158.910156 9.269531 157.230469 8.5625 155.527344 C 7.859375 153.828125 7.199219 152.113281 6.578125 150.378906 C 5.957031 148.648438 5.382812 146.902344 4.847656 145.140625 C 4.3125 143.378906 3.820312 141.605469 3.375 139.820312 C 2.925781 138.035156 2.523438 136.242188 2.164062 134.4375 C 1.808594 132.632812 1.492188 130.820312 1.222656 129 C 0.953125 127.179688 0.726562 125.351562 0.546875 123.519531 C 0.367188 121.691406 0.230469 119.855469 0.140625 118.015625 C 0.0507812 116.179688 0.00390625 114.339844 0.00390625 112.5 C 0.00390625 110.660156 0.0507812 108.820312 0.140625 106.984375 C 0.230469 105.144531 0.367188 103.308594 0.546875 101.480469 C 0.726562 99.648438 0.953125 97.820312 1.222656 96 C 1.492188 94.179688 1.808594 92.367188 2.164062 90.5625 C 2.523438 88.757812 2.925781 86.964844 3.375 85.179688 C 3.820312 83.394531 4.3125 81.621094 4.847656 79.859375 C 5.382812 78.097656 5.957031 76.351562 6.578125 74.621094 C 7.199219 72.886719 7.859375 71.171875 8.5625 69.472656 C 9.269531 67.769531 10.015625 66.089844 10.800781 64.425781 C 11.585938 62.761719 12.414062 61.117188 13.28125 59.496094 C 14.148438 57.875 15.054688 56.273438 16.003906 54.695312 C 16.949219 53.117188 17.933594 51.5625 18.953125 50.03125 C 19.976562 48.5 21.035156 46.996094 22.132812 45.519531 C 23.230469 44.042969 24.359375 42.589844 25.527344 41.167969 C 26.695312 39.746094 27.898438 38.351562 29.132812 36.988281 C 30.367188 35.625 31.636719 34.292969 32.9375 32.992188 C 34.238281 31.691406 35.570312 30.421875 36.933594 29.1875 C 38.296875 27.953125 39.691406 26.75 41.113281 25.582031 C 42.535156 24.414062 43.988281 23.285156 45.464844 22.1875 C 46.941406 21.089844 48.445312 20.03125 49.976562 19.007812 C 51.507812 17.988281 53.0625 17.003906 54.640625 16.058594 C 56.21875 15.109375 57.820312 14.203125 59.441406 13.335938 C 61.0625 12.46875 62.707031 11.640625 64.371094 10.855469 C 66.035156 10.070312 67.714844 9.324219 69.417969 8.617188 C 71.117188 7.914062 72.832031 7.253906 74.566406 6.632812 C 76.296875 6.011719 78.042969 5.4375 79.804688 4.902344 C 81.566406 4.367188 83.339844 3.875 85.125 3.429688 C 86.910156 2.984375 88.703125 2.578125 90.507812 2.21875 C 92.3125 1.863281 94.125 1.546875 95.945312 1.277344 C 97.765625 1.007812 99.59375 0.78125 101.425781 0.601562 C 103.253906 0.421875 105.089844 0.285156 106.929688 0.195312 C 108.765625 0.105469 110.605469 0.0585938 112.445312 0.0585938 C 114.285156 0.0585938 116.125 0.105469 117.960938 0.195312 C 119.800781 0.285156 121.636719 0.421875 123.464844 0.601562 C 125.296875 0.78125 127.125 1.007812 128.945312 1.277344 C 130.765625 1.546875 132.578125 1.863281 134.382812 2.21875 C 136.1875 2.578125 137.980469 2.984375 139.765625 3.429688 C 141.550781 3.875 143.324219 4.367188 145.085938 4.902344 C 146.84375 5.4375 148.59375 6.011719 150.324219 6.632812 C 152.058594 7.253906 153.773438 7.914062 155.472656 8.617188 C 157.175781 9.324219 158.855469 10.070312 160.519531 10.855469 C 162.183594 11.640625 163.824219 12.46875 165.449219 13.335938 C 167.070312 14.203125 168.671875 15.109375 170.25 16.058594 C 171.828125 17.003906 173.382812 17.988281 174.914062 19.007812 C 176.445312 20.03125 177.949219 21.089844 179.425781 22.1875 C 180.902344 23.285156 182.355469 24.414062 183.777344 25.582031 C 185.199219 26.75 186.589844 27.953125 187.957031 29.1875 C 189.320312 30.421875 190.652344 31.691406 191.953125 32.992188 C 193.253906 34.292969 194.523438 35.625 195.757812 36.988281 C 196.992188 38.351562 198.195312 39.746094 199.363281 41.167969 C 200.53125 42.589844 201.660156 44.042969 202.757812 45.519531 C 203.855469 46.996094 204.914062 48.5 205.9375 50.03125 C 206.957031 51.5625 207.941406 53.117188 208.886719 54.695312 C 209.835938 56.273438 210.742188 57.875 211.609375 59.496094 C 212.476562 61.117188 213.304688 62.761719 214.089844 64.425781 C 214.875 66.089844 215.621094 67.769531 216.324219 69.472656 C 217.03125 71.171875 217.691406 72.886719 218.3125 74.621094 C 218.933594 76.351562 219.507812 78.097656 220.042969 79.859375 C 220.578125 81.621094 221.066406 83.394531 221.515625 85.179688 C 221.960938 86.964844 222.367188 88.757812 222.722656 90.5625 C 223.082031 92.367188 223.398438 94.179688 223.667969 96 C 223.9375 97.820312 224.164062 99.648438 224.34375 101.480469 C 224.523438 103.308594 224.660156 105.144531 224.75 106.984375 C 224.839844 108.820312 224.886719 110.660156 224.886719 112.5 Z M 224.886719 112.5 " fill-opacity="1" fill-rule="nonzero"/></g><path fill="#ffffff" d="M 112.113281 42.226562 C 84.667969 42.226562 62.339844 64.550781 62.339844 91.996094 C 62.339844 102.488281 64.855469 113.769531 69.808594 125.523438 C 73.71875 134.796875 79.15625 144.398438 85.96875 154.0625 C 97.515625 170.445312 108.910156 181.242188 109.390625 181.695312 C 110.15625 182.414062 111.132812 182.773438 112.113281 182.773438 C 113.113281 182.773438 114.117188 182.398438 114.886719 181.644531 C 115.367188 181.175781 126.738281 169.984375 138.269531 153.414062 C 153.9375 130.898438 161.882812 110.234375 161.882812 91.996094 C 161.882812 64.550781 139.554688 42.226562 112.113281 42.226562 Z M 112.113281 109.070312 C 100.8125 109.070312 91.621094 99.878906 91.621094 88.578125 C 91.621094 77.28125 100.8125 68.085938 112.113281 68.085938 C 123.410156 68.085938 132.605469 77.28125 132.605469 88.578125 C 132.605469 99.878906 123.410156 109.070312 112.113281 109.070312 Z M 112.113281 109.070312 " fill-opacity="1" fill-rule="nonzero"/></svg>