<svg xmlns="http://www.w3.org/2000/svg" xmlns:xlink="http://www.w3.org/1999/xlink" width="300" zoomAndPan="magnify" viewBox="0 0 224.87999 225" height="300" preserveAspectRatio="xMidYMid meet" version="1.0"><defs><clipPath id="494c45811f"><path d="M 0 6 L 224.761719 6 L 224.761719 219.457031 L 0 219.457031 Z M 0 6 " clip-rule="nonzero"/></clipPath></defs><g clip-path="url(#494c45811f)"><path fill="#000002" d="M 27.074219 181.535156 C 19.976562 181.535156 13.40625 177.71875 9.855469 171.664062 L 3.417969 160.214844 C 0.789062 155.742188 0 150.34375 1.445312 145.210938 C 2.761719 140.082031 6.046875 135.738281 10.644531 133.105469 L 22.871094 126 C 45.34375 108.230469 57.171875 85.332031 68.738281 57.695312 L 131.300781 166.136719 C 119.339844 164.691406 107.644531 163.507812 95.945312 163.507812 C 87.796875 163.507812 80.171875 164.03125 72.945312 165.214844 C 74.523438 173.246094 71.234375 181.667969 64.269531 186.40625 L 70.449219 197.195312 C 72.417969 200.617188 72.945312 204.566406 71.894531 208.382812 C 70.839844 212.199219 68.34375 215.359375 64.925781 217.332031 C 62.691406 218.648438 60.0625 219.4375 57.4375 219.4375 C 52.179688 219.4375 47.316406 216.542969 44.6875 212.066406 Z M 219.621094 109.941406 L 155.746094 109.941406 C 152.855469 109.941406 150.488281 107.574219 150.488281 104.679688 C 150.488281 101.652344 152.855469 99.414062 155.746094 99.414062 L 219.621094 99.414062 C 222.515625 99.414062 224.878906 101.652344 224.878906 104.679688 C 224.878906 107.574219 222.515625 109.941406 219.621094 109.941406 Z M 141.289062 93.359375 C 139.449219 93.359375 137.742188 92.4375 136.6875 90.726562 C 135.242188 88.226562 136.164062 85.070312 138.660156 83.621094 L 193.992188 51.511719 C 196.492188 50.0625 199.777344 50.984375 201.222656 53.484375 C 202.667969 55.984375 201.746094 59.273438 199.25 60.722656 L 143.917969 92.703125 C 143.128906 93.097656 142.210938 93.359375 141.289062 93.359375 Z M 134.191406 72.566406 C 133.273438 72.566406 132.484375 72.304688 131.5625 71.910156 C 129.066406 70.460938 128.277344 67.171875 129.722656 64.671875 L 161.660156 9.265625 C 163.105469 6.765625 166.261719 5.84375 168.757812 7.289062 C 171.386719 8.738281 172.175781 12.027344 170.730469 14.527344 L 138.792969 69.933594 C 137.742188 71.644531 136.03125 72.566406 134.191406 72.566406 Z M 62.5625 167.453125 C 59.933594 168.113281 57.304688 168.902344 54.675781 169.824219 L 59.011719 177.324219 C 61.90625 174.824219 63.21875 171.140625 62.5625 167.453125 Z M 150.488281 172.71875 C 144.707031 172.71875 139.316406 169.558594 136.425781 164.558594 L 72.683594 54.140625 C 70.578125 50.324219 70.054688 45.984375 71.105469 41.769531 C 72.289062 37.558594 74.917969 34.007812 78.726562 31.902344 C 81.09375 30.453125 83.984375 29.664062 86.746094 29.664062 C 92.660156 29.664062 98.046875 32.820312 100.941406 37.824219 L 164.550781 148.238281 C 166.785156 152.054688 167.3125 156.398438 166.128906 160.609375 C 165.078125 164.820312 162.320312 168.375 158.636719 170.480469 C 156.140625 171.929688 153.382812 172.71875 150.488281 172.71875 Z M 150.488281 172.71875 " fill-opacity="1" fill-rule="evenodd"/></g></svg>