<svg xmlns="http://www.w3.org/2000/svg" xmlns:xlink="http://www.w3.org/1999/xlink" width="300" zoomAndPan="magnify" viewBox="0 0 224.87999 225" height="300" preserveAspectRatio="xMidYMid meet" version="1.0"><defs><clipPath id="71c7a0abc9"><path d="M 0 0.0585938 L 224.761719 0.0585938 L 224.761719 224.9375 L 0 224.9375 Z M 0 0.0585938 " clip-rule="nonzero"/></clipPath><clipPath id="c8d793e5a3"><path d="M 112.441406 0.0585938 C 50.339844 0.0585938 0 50.402344 0 112.5 C 0 174.597656 50.339844 224.941406 112.441406 224.941406 C 174.539062 224.941406 224.878906 174.597656 224.878906 112.5 C 224.878906 50.402344 174.539062 0.0585938 112.441406 0.0585938 Z M 112.441406 0.0585938 " clip-rule="nonzero"/></clipPath><clipPath id="1ee3034683"><path d="M 53.125 75 L 150 75 L 150 171.921875 L 53.125 171.921875 Z M 53.125 75 " clip-rule="nonzero"/></clipPath><clipPath id="7eb7740b53"><path d="M 138 53.1875 L 171.863281 53.1875 L 171.863281 87 L 138 87 Z M 138 53.1875 " clip-rule="nonzero"/></clipPath></defs><g clip-path="url(#71c7a0abc9)"><g clip-path="url(#c8d793e5a3)"><path fill="#737373" d="M 0 0.0585938 L 224.878906 0.0585938 L 224.878906 224.941406 L 0 224.941406 Z M 0 0.0585938 " fill-opacity="1" fill-rule="nonzero"/></g></g><g clip-path="url(#1ee3034683)"><path fill="#ffffff" d="M 53.257812 152.953125 L 53.257812 171.800781 L 72.097656 171.800781 L 149.832031 94.0625 L 130.992188 75.226562 Z M 53.257812 152.953125 " fill-opacity="1" fill-rule="nonzero"/></g><g clip-path="url(#7eb7740b53)"><path fill="#ffffff" d="M 138.414062 67.796875 L 153.078125 53.132812 L 171.925781 71.972656 L 157.253906 86.636719 Z M 138.414062 67.796875 " fill-opacity="1" fill-rule="nonzero"/></g></svg>