<svg xmlns="http://www.w3.org/2000/svg" xmlns:xlink="http://www.w3.org/1999/xlink" width="300" zoomAndPan="magnify" viewBox="0 0 224.87999 225" height="300" preserveAspectRatio="xMidYMid meet" version="1.0"><defs><clipPath id="a2e476f5af"><path d="M 0 0.0585938 L 224.761719 0.0585938 L 224.761719 224.9375 L 0 224.9375 Z M 0 0.0585938 " clip-rule="nonzero"/></clipPath></defs><path fill="#737373" d="M 145.628906 105.542969 C 145.628906 106.855469 145.5625 108.167969 145.433594 109.476562 C 145.304688 110.785156 145.113281 112.082031 144.855469 113.375 C 144.601562 114.664062 144.28125 115.9375 143.898438 117.195312 C 143.519531 118.453125 143.074219 119.691406 142.570312 120.90625 C 142.070312 122.121094 141.507812 123.308594 140.886719 124.464844 C 140.269531 125.625 139.59375 126.753906 138.863281 127.84375 C 138.132812 128.9375 137.347656 129.992188 136.515625 131.011719 C 135.679688 132.027344 134.800781 133 133.871094 133.929688 C 132.941406 134.859375 131.964844 135.742188 130.949219 136.574219 C 129.933594 137.410156 128.878906 138.191406 127.785156 138.921875 C 126.691406 139.652344 125.566406 140.328125 124.40625 140.949219 C 123.246094 141.566406 122.058594 142.128906 120.84375 142.632812 C 119.628906 143.136719 118.394531 143.578125 117.136719 143.960938 C 115.875 144.339844 114.601562 144.660156 113.3125 144.917969 C 112.023438 145.171875 110.726562 145.367188 109.417969 145.496094 C 108.109375 145.625 106.796875 145.6875 105.480469 145.6875 C 104.167969 145.6875 102.855469 145.625 101.546875 145.496094 C 100.238281 145.367188 98.9375 145.171875 97.648438 144.917969 C 96.359375 144.660156 95.085938 144.339844 93.828125 143.960938 C 92.570312 143.578125 91.332031 143.136719 90.117188 142.632812 C 88.902344 142.128906 87.714844 141.566406 86.554688 140.949219 C 85.394531 140.328125 84.269531 139.652344 83.175781 138.921875 C 82.082031 138.191406 81.027344 137.410156 80.011719 136.574219 C 78.996094 135.742188 78.023438 134.859375 77.09375 133.929688 C 76.164062 133 75.28125 132.027344 74.445312 131.011719 C 73.613281 129.992188 72.832031 128.9375 72.101562 127.84375 C 71.371094 126.753906 70.695312 125.625 70.074219 124.464844 C 69.453125 123.308594 68.894531 122.121094 68.390625 120.90625 C 67.886719 119.691406 67.445312 118.453125 67.0625 117.195312 C 66.679688 115.9375 66.363281 114.664062 66.105469 113.375 C 65.847656 112.082031 65.65625 110.785156 65.527344 109.476562 C 65.398438 108.167969 65.332031 106.855469 65.332031 105.542969 C 65.332031 104.226562 65.398438 102.914062 65.527344 101.605469 C 65.65625 100.296875 65.847656 99 66.105469 97.707031 C 66.363281 96.417969 66.679688 95.144531 67.0625 93.886719 C 67.445312 92.628906 67.886719 91.390625 68.390625 90.175781 C 68.894531 88.960938 69.453125 87.773438 70.074219 86.617188 C 70.695312 85.457031 71.371094 84.328125 72.101562 83.238281 C 72.832031 82.144531 73.613281 81.089844 74.445312 80.070312 C 75.28125 79.054688 76.164062 78.082031 77.09375 77.152344 C 78.023438 76.222656 78.996094 75.339844 80.011719 74.507812 C 81.027344 73.671875 82.082031 72.890625 83.175781 72.160156 C 84.269531 71.429688 85.394531 70.753906 86.554688 70.132812 C 87.714844 69.515625 88.902344 68.953125 90.117188 68.449219 C 91.332031 67.945312 92.570312 67.503906 93.828125 67.121094 C 95.085938 66.742188 96.359375 66.421875 97.648438 66.164062 C 98.9375 65.910156 100.238281 65.714844 101.546875 65.585938 C 102.855469 65.457031 104.167969 65.394531 105.480469 65.394531 C 106.796875 65.394531 108.109375 65.457031 109.417969 65.585938 C 110.726562 65.714844 112.023438 65.910156 113.3125 66.164062 C 114.601562 66.421875 115.875 66.742188 117.136719 67.121094 C 118.394531 67.503906 119.628906 67.945312 120.84375 68.449219 C 122.058594 68.953125 123.246094 69.515625 124.40625 70.132812 C 125.566406 70.753906 126.691406 71.429688 127.785156 72.160156 C 128.878906 72.890625 129.933594 73.671875 130.949219 74.507812 C 131.964844 75.339844 132.941406 76.222656 133.871094 77.152344 C 134.800781 78.082031 135.679688 79.054688 136.515625 80.070312 C 137.347656 81.089844 138.132812 82.144531 138.863281 83.238281 C 139.59375 84.328125 140.269531 85.457031 140.886719 86.617188 C 141.507812 87.773438 142.070312 88.960938 142.570312 90.175781 C 143.074219 91.390625 143.519531 92.628906 143.898438 93.886719 C 144.28125 95.144531 144.601562 96.417969 144.855469 97.707031 C 145.113281 99 145.304688 100.296875 145.433594 101.605469 C 145.5625 102.914062 145.628906 104.226562 145.628906 105.542969 Z M 145.628906 105.542969 " fill-opacity="1" fill-rule="nonzero"/><g clip-path="url(#a2e476f5af)"><path fill="#737373" d="M 112.441406 0.0585938 C 50.339844 0.0585938 0 50.402344 0 112.5 C 0 174.597656 50.339844 224.941406 112.441406 224.941406 C 174.539062 224.941406 224.878906 174.597656 224.878906 112.5 C 224.878906 50.402344 174.539062 0.0585938 112.441406 0.0585938 Z M 177.824219 177.882812 C 173.640625 182.0625 166.863281 182.0625 162.683594 177.882812 L 140.777344 155.976562 C 130.808594 162.96875 118.671875 167.082031 105.574219 167.101562 C 72.039062 167.152344 44.472656 140.089844 43.929688 106.558594 C 43.367188 71.753906 71.695312 43.425781 106.5 43.988281 C 140.03125 44.53125 167.089844 72.097656 167.039062 105.636719 C 167.019531 118.730469 162.910156 130.867188 155.917969 140.835938 L 177.824219 162.742188 C 182.003906 166.921875 182.003906 173.703125 177.824219 177.882812 Z M 177.824219 177.882812 " fill-opacity="1" fill-rule="nonzero"/></g></svg>