<svg xmlns="http://www.w3.org/2000/svg" xmlns:xlink="http://www.w3.org/1999/xlink" width="300" zoomAndPan="magnify" viewBox="0 0 224.87999 225" height="300" preserveAspectRatio="xMidYMid meet" version="1.0"><defs><clipPath id="c5782da22a"><path d="M 29 0.0585938 L 196 0.0585938 L 196 110 L 29 110 Z M 29 0.0585938 " clip-rule="nonzero"/></clipPath><clipPath id="3488dec990"><path d="M 0 194 L 224.761719 194 L 224.761719 224.9375 L 0 224.9375 Z M 0 194 " clip-rule="nonzero"/></clipPath></defs><g clip-path="url(#c5782da22a)"><path fill="#000000" d="M 37.472656 109.21875 C 38.683594 109.222656 39.824219 108.949219 40.898438 108.398438 C 41.972656 107.847656 42.863281 107.082031 43.566406 106.101562 L 79.003906 56.820312 L 106.96875 86.6875 C 107.65625 87.429688 108.464844 88.003906 109.390625 88.417969 C 110.3125 88.828125 111.28125 89.042969 112.296875 89.0625 C 113.308594 89.105469 114.289062 88.941406 115.234375 88.566406 C 116.175781 88.191406 117.003906 87.640625 117.710938 86.910156 L 180.078125 25.347656 L 180.078125 45.035156 C 180.066406 45.535156 180.105469 46.03125 180.191406 46.523438 C 180.28125 47.015625 180.414062 47.496094 180.597656 47.960938 C 180.78125 48.425781 181.007812 48.867188 181.277344 49.289062 C 181.550781 49.707031 181.859375 50.097656 182.210938 50.453125 C 182.558594 50.8125 182.941406 51.132812 183.351562 51.414062 C 183.765625 51.695312 184.203125 51.933594 184.664062 52.125 C 185.125 52.320312 185.601562 52.46875 186.089844 52.566406 C 186.578125 52.664062 187.074219 52.714844 187.574219 52.714844 C 188.074219 52.714844 188.570312 52.664062 189.058594 52.566406 C 189.550781 52.46875 190.023438 52.320312 190.484375 52.125 C 190.945312 51.933594 191.382812 51.695312 191.796875 51.414062 C 192.210938 51.132812 192.589844 50.8125 192.941406 50.453125 C 193.289062 50.097656 193.601562 49.707031 193.871094 49.289062 C 194.140625 48.867188 194.371094 48.425781 194.550781 47.960938 C 194.734375 47.496094 194.871094 47.015625 194.957031 46.523438 C 195.042969 46.03125 195.082031 45.535156 195.070312 45.035156 L 195.070312 7.558594 C 195.070312 7.0625 195.023438 6.574219 194.925781 6.089844 C 194.828125 5.605469 194.6875 5.136719 194.5 4.679688 C 194.308594 4.226562 194.078125 3.792969 193.800781 3.382812 C 193.527344 2.972656 193.214844 2.59375 192.867188 2.246094 C 192.515625 1.898438 192.136719 1.585938 191.726562 1.3125 C 191.316406 1.039062 190.878906 0.808594 190.425781 0.621094 C 189.96875 0.433594 189.496094 0.292969 189.011719 0.199219 C 188.527344 0.105469 188.039062 0.0585938 187.546875 0.0585938 L 150.066406 0.0585938 C 149.582031 0.0703125 149.105469 0.128906 148.632812 0.234375 C 148.15625 0.339844 147.699219 0.488281 147.253906 0.683594 C 146.8125 0.875 146.390625 1.109375 145.988281 1.386719 C 145.589844 1.660156 145.222656 1.972656 144.882812 2.316406 C 144.546875 2.664062 144.242188 3.042969 143.976562 3.445312 C 143.710938 3.851562 143.488281 4.277344 143.304688 4.726562 C 143.121094 5.175781 142.984375 5.640625 142.890625 6.113281 C 142.796875 6.589844 142.75 7.070312 142.75 7.554688 C 142.75 8.039062 142.796875 8.519531 142.890625 8.996094 C 142.984375 9.472656 143.121094 9.933594 143.304688 10.382812 C 143.488281 10.832031 143.710938 11.257812 143.976562 11.664062 C 144.242188 12.070312 144.546875 12.445312 144.882812 12.792969 C 145.222656 13.140625 145.589844 13.449219 145.988281 13.726562 C 146.390625 14 146.8125 14.234375 147.253906 14.429688 C 147.699219 14.621094 148.15625 14.769531 148.632812 14.875 C 149.105469 14.980469 149.582031 15.039062 150.066406 15.050781 L 169.144531 15.050781 L 112.652344 70.832031 L 83.710938 39.910156 C 83.332031 39.507812 82.914062 39.148438 82.457031 38.835938 C 82 38.523438 81.511719 38.265625 81 38.0625 C 80.484375 37.859375 79.953125 37.714844 79.40625 37.625 C 78.859375 37.539062 78.308594 37.515625 77.757812 37.550781 C 77.203125 37.585938 76.664062 37.679688 76.132812 37.835938 C 75.601562 37.992188 75.09375 38.203125 74.609375 38.472656 C 74.125 38.742188 73.675781 39.058594 73.261719 39.425781 C 72.847656 39.792969 72.476562 40.203125 72.15625 40.652344 L 31.394531 97.347656 C 30.996094 97.90625 30.675781 98.511719 30.441406 99.15625 C 30.207031 99.804688 30.0625 100.472656 30.011719 101.15625 C 29.960938 101.84375 30.003906 102.523438 30.140625 103.199219 C 30.277344 103.875 30.503906 104.519531 30.816406 105.128906 C 31.132812 105.742188 31.523438 106.300781 31.988281 106.808594 C 32.457031 107.3125 32.984375 107.742188 33.574219 108.105469 C 34.160156 108.464844 34.785156 108.738281 35.449219 108.921875 C 36.109375 109.109375 36.785156 109.203125 37.472656 109.207031 Z M 37.472656 109.21875 " fill-opacity="1" fill-rule="nonzero"/></g><g clip-path="url(#3488dec990)"><path fill="#000000" d="M 0 194.953125 L 0 202.453125 C 0 203.1875 0.0390625 203.921875 0.109375 204.65625 C 0.183594 205.386719 0.292969 206.117188 0.4375 206.835938 C 0.582031 207.558594 0.761719 208.273438 0.972656 208.976562 C 1.1875 209.679688 1.4375 210.375 1.71875 211.054688 C 2 211.734375 2.316406 212.398438 2.664062 213.046875 C 3.011719 213.695312 3.390625 214.328125 3.796875 214.9375 C 4.207031 215.550781 4.644531 216.140625 5.113281 216.710938 C 5.578125 217.28125 6.074219 217.824219 6.59375 218.34375 C 7.113281 218.867188 7.660156 219.359375 8.230469 219.828125 C 8.796875 220.292969 9.386719 220.734375 10 221.140625 C 10.613281 221.550781 11.242188 221.929688 11.890625 222.277344 C 12.542969 222.625 13.207031 222.9375 13.886719 223.222656 C 14.566406 223.503906 15.257812 223.75 15.964844 223.964844 C 16.667969 224.179688 17.378906 224.359375 18.101562 224.503906 C 18.824219 224.648438 19.550781 224.757812 20.285156 224.828125 C 21.015625 224.902344 21.75 224.9375 22.488281 224.941406 L 202.390625 224.941406 C 203.128906 224.9375 203.863281 224.902344 204.59375 224.828125 C 205.328125 224.757812 206.054688 224.648438 206.777344 224.503906 C 207.5 224.359375 208.210938 224.179688 208.917969 223.964844 C 209.621094 223.75 210.3125 223.503906 210.992188 223.222656 C 211.671875 222.9375 212.339844 222.625 212.988281 222.277344 C 213.636719 221.929688 214.265625 221.550781 214.878906 221.140625 C 215.492188 220.734375 216.082031 220.292969 216.652344 219.828125 C 217.21875 219.359375 217.765625 218.867188 218.285156 218.347656 C 218.804688 217.824219 219.300781 217.28125 219.765625 216.710938 C 220.234375 216.140625 220.671875 215.550781 221.082031 214.9375 C 221.492188 214.328125 221.871094 213.695312 222.21875 213.046875 C 222.5625 212.398438 222.878906 211.734375 223.160156 211.054688 C 223.441406 210.375 223.691406 209.679688 223.90625 208.976562 C 224.121094 208.273438 224.300781 207.558594 224.445312 206.835938 C 224.585938 206.117188 224.695312 205.386719 224.769531 204.65625 C 224.84375 203.921875 224.878906 203.1875 224.878906 202.453125 L 224.878906 194.953125 Z M 0 194.953125 " fill-opacity="1" fill-rule="nonzero"/></g><path fill="#000000" d="M 67.464844 149.980469 C 67.460938 148.996094 67.367188 148.019531 67.171875 147.054688 C 66.980469 146.089844 66.695312 145.152344 66.316406 144.246094 C 65.941406 143.335938 65.480469 142.472656 64.933594 141.65625 C 64.386719 140.835938 63.765625 140.078125 63.066406 139.382812 C 62.371094 138.6875 61.617188 138.066406 60.796875 137.519531 C 59.980469 136.972656 59.117188 136.511719 58.207031 136.132812 C 57.296875 135.757812 56.363281 135.472656 55.398438 135.277344 C 54.433594 135.085938 53.457031 134.988281 52.472656 134.988281 L 29.984375 134.988281 C 29 134.988281 28.027344 135.085938 27.0625 135.277344 C 26.097656 135.472656 25.160156 135.757812 24.25 136.132812 C 23.34375 136.511719 22.476562 136.972656 21.660156 137.519531 C 20.84375 138.066406 20.085938 138.6875 19.390625 139.382812 C 18.691406 140.078125 18.070312 140.835938 17.523438 141.652344 C 16.976562 142.472656 16.515625 143.335938 16.136719 144.246094 C 15.761719 145.152344 15.476562 146.089844 15.28125 147.054688 C 15.089844 148.019531 14.992188 148.996094 14.992188 149.980469 L 14.992188 179.964844 L 67.464844 179.964844 Z M 67.464844 149.980469 " fill-opacity="1" fill-rule="nonzero"/><path fill="#000000" d="M 101.195312 105.003906 C 100.210938 105.003906 99.238281 105.101562 98.273438 105.292969 C 97.308594 105.488281 96.371094 105.773438 95.460938 106.148438 C 94.550781 106.527344 93.6875 106.988281 92.871094 107.535156 C 92.050781 108.082031 91.296875 108.703125 90.601562 109.398438 C 89.902344 110.097656 89.28125 110.851562 88.734375 111.671875 C 88.1875 112.488281 87.726562 113.351562 87.351562 114.261719 C 86.972656 115.171875 86.6875 116.109375 86.496094 117.074219 C 86.304688 118.039062 86.207031 119.011719 86.207031 119.996094 L 86.207031 179.964844 L 138.675781 179.964844 L 138.675781 119.996094 C 138.671875 119.011719 138.578125 118.039062 138.382812 117.074219 C 138.191406 116.109375 137.90625 115.171875 137.53125 114.261719 C 137.152344 113.351562 136.691406 112.488281 136.144531 111.671875 C 135.597656 110.851562 134.976562 110.097656 134.28125 109.398438 C 133.585938 108.703125 132.828125 108.082031 132.007812 107.535156 C 131.191406 106.988281 130.328125 106.527344 129.417969 106.148438 C 128.511719 105.773438 127.574219 105.488281 126.609375 105.292969 C 125.644531 105.101562 124.667969 105.003906 123.683594 105.003906 Z M 101.195312 105.003906 " fill-opacity="1" fill-rule="nonzero"/><path fill="#000000" d="M 172.40625 75.019531 C 171.421875 75.023438 170.449219 75.121094 169.484375 75.3125 C 168.519531 75.503906 167.582031 75.789062 166.671875 76.167969 C 165.765625 76.542969 164.898438 77.007812 164.082031 77.554688 C 163.265625 78.101562 162.507812 78.722656 161.8125 79.417969 C 161.117188 80.113281 160.496094 80.871094 159.949219 81.6875 C 159.402344 82.503906 158.9375 83.371094 158.5625 84.277344 C 158.183594 85.1875 157.898438 86.125 157.707031 87.089844 C 157.515625 88.054688 157.417969 89.027344 157.414062 90.011719 L 157.414062 179.964844 L 209.890625 179.964844 L 209.890625 90.011719 C 209.886719 89.027344 209.792969 88.054688 209.597656 87.089844 C 209.40625 86.125 209.121094 85.1875 208.742188 84.277344 C 208.367188 83.367188 207.902344 82.503906 207.355469 81.6875 C 206.808594 80.867188 206.1875 80.113281 205.492188 79.414062 C 204.796875 78.71875 204.039062 78.097656 203.222656 77.550781 C 202.402344 77.003906 201.539062 76.542969 200.628906 76.164062 C 199.71875 75.789062 198.785156 75.503906 197.820312 75.3125 C 196.851562 75.117188 195.878906 75.023438 194.894531 75.019531 Z M 172.40625 75.019531 " fill-opacity="1" fill-rule="nonzero"/></svg>