<svg xmlns="http://www.w3.org/2000/svg" xmlns:xlink="http://www.w3.org/1999/xlink" width="300" zoomAndPan="magnify" viewBox="0 0 224.87999 225" height="300" preserveAspectRatio="xMidYMid meet" version="1.0"><defs><clipPath id="78c6bd19a0"><path d="M 0 0.0585938 L 224.761719 0.0585938 L 224.761719 224.9375 L 0 224.9375 Z M 0 0.0585938 " clip-rule="nonzero"/></clipPath></defs><g clip-path="url(#78c6bd19a0)"><path fill="#737373" d="M 112.441406 0.0585938 C 110.601562 0.0585938 108.761719 0.105469 106.921875 0.195312 C 105.085938 0.285156 103.25 0.421875 101.417969 0.601562 C 99.585938 0.78125 97.761719 1.007812 95.941406 1.277344 C 94.121094 1.546875 92.308594 1.863281 90.503906 2.21875 C 88.699219 2.578125 86.90625 2.984375 85.121094 3.429688 C 83.335938 3.875 81.5625 4.367188 79.800781 4.902344 C 78.039062 5.4375 76.292969 6.011719 74.558594 6.632812 C 72.828125 7.253906 71.109375 7.914062 69.410156 8.617188 C 67.710938 9.324219 66.027344 10.070312 64.367188 10.855469 C 62.703125 11.640625 61.058594 12.46875 59.4375 13.335938 C 57.8125 14.203125 56.210938 15.109375 54.632812 16.058594 C 53.054688 17.003906 51.5 17.988281 49.972656 19.007812 C 48.441406 20.03125 46.9375 21.089844 45.460938 22.1875 C 43.980469 23.285156 42.53125 24.414062 41.109375 25.582031 C 39.6875 26.75 38.292969 27.953125 36.929688 29.1875 C 35.566406 30.421875 34.234375 31.691406 32.933594 32.992188 C 31.632812 34.292969 30.363281 35.625 29.128906 36.988281 C 27.890625 38.351562 26.691406 39.746094 25.523438 41.167969 C 24.355469 42.589844 23.222656 44.042969 22.128906 45.519531 C 21.03125 46.996094 19.972656 48.5 18.949219 50.03125 C 17.925781 51.5625 16.941406 53.117188 15.996094 54.695312 C 15.050781 56.273438 14.144531 57.875 13.277344 59.496094 C 12.410156 61.117188 11.582031 62.761719 10.796875 64.425781 C 10.007812 66.089844 9.261719 67.769531 8.558594 69.472656 C 7.855469 71.171875 7.191406 72.886719 6.574219 74.621094 C 5.953125 76.351562 5.375 78.097656 4.839844 79.859375 C 4.308594 81.621094 3.816406 83.394531 3.371094 85.179688 C 2.921875 86.964844 2.519531 88.757812 2.160156 90.5625 C 1.800781 92.367188 1.488281 94.179688 1.21875 96 C 0.945312 97.820312 0.722656 99.648438 0.542969 101.480469 C 0.359375 103.308594 0.226562 105.144531 0.136719 106.984375 C 0.046875 108.820312 0 110.660156 0 112.5 C 0 114.339844 0.046875 116.179688 0.136719 118.015625 C 0.226562 119.855469 0.359375 121.691406 0.542969 123.519531 C 0.722656 125.351562 0.945312 127.179688 1.21875 129 C 1.488281 130.820312 1.800781 132.632812 2.160156 134.4375 C 2.519531 136.242188 2.921875 138.035156 3.371094 139.820312 C 3.816406 141.605469 4.308594 143.378906 4.839844 145.140625 C 5.375 146.902344 5.953125 148.648438 6.574219 150.378906 C 7.191406 152.113281 7.855469 153.828125 8.558594 155.527344 C 9.261719 157.230469 10.007812 158.910156 10.796875 160.574219 C 11.582031 162.238281 12.410156 163.882812 13.277344 165.503906 C 14.144531 167.125 15.050781 168.726562 15.996094 170.304688 C 16.941406 171.882812 17.925781 173.4375 18.949219 174.96875 C 19.972656 176.5 21.03125 178.003906 22.128906 179.480469 C 23.222656 180.957031 24.355469 182.410156 25.523438 183.832031 C 26.691406 185.253906 27.890625 186.648438 29.128906 188.011719 C 30.363281 189.375 31.632812 190.707031 32.933594 192.007812 C 34.234375 193.308594 35.566406 194.578125 36.929688 195.8125 C 38.292969 197.046875 39.6875 198.25 41.109375 199.417969 C 42.53125 200.585938 43.980469 201.714844 45.460938 202.8125 C 46.9375 203.910156 48.441406 204.96875 49.972656 205.992188 C 51.5 207.011719 53.054688 207.996094 54.632812 208.941406 C 56.210938 209.890625 57.8125 210.796875 59.4375 211.664062 C 61.058594 212.53125 62.703125 213.359375 64.367188 214.144531 C 66.027344 214.929688 67.710938 215.675781 69.410156 216.382812 C 71.109375 217.085938 72.828125 217.746094 74.558594 218.367188 C 76.292969 218.988281 78.039062 219.5625 79.800781 220.097656 C 81.5625 220.632812 83.335938 221.125 85.121094 221.570312 C 86.90625 222.015625 88.699219 222.421875 90.503906 222.78125 C 92.308594 223.136719 94.121094 223.453125 95.941406 223.722656 C 97.761719 223.992188 99.585938 224.21875 101.417969 224.398438 C 103.25 224.578125 105.085938 224.714844 106.921875 224.804688 C 108.761719 224.894531 110.601562 224.941406 112.441406 224.941406 C 114.28125 224.941406 116.121094 224.894531 117.957031 224.804688 C 119.796875 224.714844 121.628906 224.578125 123.460938 224.398438 C 125.292969 224.21875 127.117188 223.992188 128.9375 223.722656 C 130.757812 223.453125 132.570312 223.136719 134.375 222.78125 C 136.179688 222.421875 137.976562 222.015625 139.761719 221.570312 C 141.546875 221.125 143.320312 220.632812 145.078125 220.097656 C 146.839844 219.5625 148.585938 218.988281 150.320312 218.367188 C 152.050781 217.746094 153.769531 217.085938 155.46875 216.382812 C 157.167969 215.675781 158.851562 214.929688 160.515625 214.144531 C 162.179688 213.359375 163.820312 212.53125 165.445312 211.664062 C 167.066406 210.796875 168.667969 209.890625 170.246094 208.941406 C 171.824219 207.996094 173.378906 207.011719 174.910156 205.992188 C 176.4375 204.96875 177.941406 203.910156 179.421875 202.8125 C 180.898438 201.714844 182.347656 200.585938 183.769531 199.417969 C 185.195312 198.25 186.585938 197.046875 187.949219 195.8125 C 189.3125 194.578125 190.644531 193.308594 191.945312 192.007812 C 193.25 190.707031 194.515625 189.375 195.753906 188.011719 C 196.988281 186.648438 198.191406 185.253906 199.355469 183.832031 C 200.523438 182.410156 201.65625 180.957031 202.753906 179.480469 C 203.847656 178.003906 204.90625 176.5 205.929688 174.96875 C 206.953125 173.4375 207.9375 171.882812 208.882812 170.304688 C 209.828125 168.726562 210.734375 167.125 211.601562 165.503906 C 212.46875 163.882812 213.296875 162.238281 214.085938 160.574219 C 214.871094 158.910156 215.617188 157.230469 216.320312 155.527344 C 217.023438 153.828125 217.6875 152.113281 218.308594 150.378906 C 218.925781 148.648438 219.503906 146.902344 220.039062 145.140625 C 220.574219 143.378906 221.0625 141.605469 221.511719 139.820312 C 221.957031 138.035156 222.359375 136.242188 222.71875 134.4375 C 223.078125 132.632812 223.394531 130.820312 223.664062 129 C 223.933594 127.179688 224.15625 125.351562 224.339844 123.519531 C 224.519531 121.691406 224.652344 119.855469 224.746094 118.015625 C 224.835938 116.179688 224.878906 114.339844 224.878906 112.5 C 224.878906 110.660156 224.835938 108.820312 224.742188 106.984375 C 224.652344 105.144531 224.519531 103.3125 224.335938 101.480469 C 224.15625 99.648438 223.929688 97.824219 223.660156 96.003906 C 223.390625 94.183594 223.078125 92.371094 222.71875 90.566406 C 222.359375 88.761719 221.953125 86.964844 221.507812 85.179688 C 221.058594 83.394531 220.570312 81.621094 220.035156 79.863281 C 219.5 78.101562 218.921875 76.355469 218.304688 74.621094 C 217.683594 72.890625 217.023438 71.171875 216.316406 69.472656 C 215.613281 67.773438 214.867188 66.089844 214.082031 64.429688 C 213.292969 62.765625 212.464844 61.121094 211.597656 59.5 C 210.730469 57.875 209.824219 56.277344 208.878906 54.699219 C 207.933594 53.117188 206.949219 51.566406 205.925781 50.035156 C 204.902344 48.503906 203.84375 47 202.75 45.523438 C 201.652344 44.046875 200.519531 42.59375 199.351562 41.171875 C 198.1875 39.75 196.984375 38.355469 195.75 36.992188 C 194.511719 35.628906 193.242188 34.296875 191.941406 32.996094 C 190.640625 31.695312 189.308594 30.425781 187.945312 29.191406 C 186.582031 27.957031 185.191406 26.753906 183.765625 25.585938 C 182.34375 24.417969 180.894531 23.289062 179.417969 22.191406 C 177.9375 21.09375 176.433594 20.035156 174.90625 19.015625 C 173.375 17.992188 171.820312 17.007812 170.242188 16.0625 C 168.664062 15.113281 167.0625 14.207031 165.441406 13.339844 C 163.816406 12.472656 162.175781 11.644531 160.511719 10.859375 C 158.847656 10.074219 157.167969 9.328125 155.464844 8.621094 C 153.765625 7.917969 152.050781 7.257812 150.316406 6.636719 C 148.585938 6.015625 146.839844 5.4375 145.078125 4.90625 C 143.316406 4.371094 141.542969 3.878906 139.757812 3.433594 C 137.972656 2.984375 136.179688 2.582031 134.375 2.222656 C 132.570312 1.863281 130.757812 1.550781 128.9375 1.277344 C 127.117188 1.007812 125.292969 0.785156 123.460938 0.601562 C 121.628906 0.421875 119.792969 0.285156 117.957031 0.195312 C 116.117188 0.105469 114.28125 0.0585938 112.441406 0.0585938 Z M 112.441406 42.226562 C 113.105469 42.226562 113.769531 42.242188 114.433594 42.28125 C 115.097656 42.320312 115.761719 42.378906 116.421875 42.453125 C 117.082031 42.53125 117.738281 42.625 118.394531 42.738281 C 119.050781 42.855469 119.703125 42.988281 120.347656 43.140625 C 120.996094 43.292969 121.640625 43.464844 122.277344 43.652344 C 122.914062 43.84375 123.546875 44.050781 124.171875 44.277344 C 124.796875 44.5 125.417969 44.746094 126.027344 45.007812 C 126.640625 45.269531 127.242188 45.546875 127.839844 45.84375 C 128.433594 46.140625 129.019531 46.457031 129.597656 46.785156 C 130.175781 47.117188 130.742188 47.464844 131.296875 47.828125 C 131.855469 48.191406 132.402344 48.570312 132.9375 48.964844 C 133.472656 49.359375 133.996094 49.769531 134.507812 50.195312 C 135.019531 50.621094 135.515625 51.058594 136.003906 51.515625 C 136.488281 51.96875 136.960938 52.4375 137.421875 52.917969 C 137.878906 53.398438 138.324219 53.894531 138.753906 54.402344 C 139.183594 54.90625 139.601562 55.425781 140 55.957031 C 140.402344 56.488281 140.785156 57.03125 141.15625 57.585938 C 141.523438 58.140625 141.875 58.703125 142.210938 59.277344 C 142.546875 59.851562 142.867188 60.433594 143.171875 61.027344 C 143.472656 61.617188 143.757812 62.21875 144.027344 62.828125 C 144.292969 63.4375 144.542969 64.054688 144.777344 64.675781 C 145.007812 65.300781 145.222656 65.929688 145.417969 66.566406 C 145.613281 67.199219 145.789062 67.84375 145.949219 68.488281 C 146.109375 69.132812 146.246094 69.785156 146.367188 70.4375 C 146.488281 71.09375 146.59375 71.75 146.675781 72.410156 C 146.757812 73.070312 146.820312 73.730469 146.867188 74.394531 C 146.910156 75.058594 146.9375 75.722656 146.941406 76.386719 C 146.949219 77.054688 146.9375 77.71875 146.902344 78.382812 C 146.871094 79.046875 146.820312 79.710938 146.75 80.371094 C 146.679688 81.03125 146.589844 81.691406 146.480469 82.347656 C 146.371094 83.003906 146.246094 83.65625 146.097656 84.304688 C 145.953125 84.953125 145.785156 85.597656 145.601562 86.238281 C 145.417969 86.875 145.21875 87.511719 144.996094 88.136719 C 144.777344 88.765625 144.539062 89.386719 144.28125 90 C 144.027344 90.613281 143.75 91.21875 143.460938 91.816406 C 143.167969 92.414062 142.859375 93.003906 142.535156 93.585938 C 142.210938 94.164062 141.867188 94.734375 141.507812 95.296875 C 141.152344 95.855469 140.777344 96.40625 140.386719 96.945312 C 139.996094 97.484375 139.589844 98.011719 139.171875 98.523438 C 138.75 99.039062 138.3125 99.542969 137.863281 100.035156 C 137.414062 100.523438 136.949219 101 136.472656 101.464844 C 135.996094 101.925781 135.503906 102.375 135.003906 102.808594 C 134.5 103.246094 133.984375 103.664062 133.457031 104.070312 C 132.929688 104.476562 132.390625 104.863281 131.839844 105.238281 C 131.289062 105.613281 130.726562 105.96875 130.15625 106.3125 C 129.585938 106.652344 129.007812 106.976562 128.417969 107.285156 C 127.828125 107.59375 127.230469 107.882812 126.621094 108.15625 C 126.015625 108.429688 125.402344 108.683594 124.78125 108.921875 C 124.160156 109.160156 123.53125 109.378906 122.898438 109.582031 C 122.261719 109.78125 121.625 109.964844 120.980469 110.128906 C 120.335938 110.292969 119.6875 110.441406 119.035156 110.566406 C 118.378906 110.695312 117.722656 110.800781 117.066406 110.890625 C 116.40625 110.980469 115.746094 111.050781 115.082031 111.101562 C 114.417969 111.152344 113.753906 111.183594 113.089844 111.195312 C 112.425781 111.207031 111.757812 111.199219 111.09375 111.171875 C 110.429688 111.148438 109.765625 111.101562 109.105469 111.035156 C 108.441406 110.972656 107.78125 110.886719 107.125 110.785156 C 106.46875 110.683594 105.816406 110.5625 105.164062 110.421875 C 104.515625 110.28125 103.867188 110.121094 103.226562 109.941406 C 102.585938 109.765625 101.953125 109.566406 101.320312 109.351562 C 100.691406 109.136719 100.070312 108.90625 99.453125 108.65625 C 98.835938 108.402344 98.230469 108.136719 97.628906 107.847656 C 97.027344 107.5625 96.4375 107.261719 95.851562 106.941406 C 95.269531 106.621094 94.695312 106.28125 94.132812 105.929688 C 65.179688 87.585938 77.722656 42.578125 112.441406 42.226562 Z M 152.882812 182.773438 L 71.996094 182.773438 C 71.160156 182.773438 70.328125 182.730469 69.5 182.648438 C 68.667969 182.566406 67.84375 182.441406 67.027344 182.277344 C 66.207031 182.113281 65.398438 181.910156 64.601562 181.664062 C 63.800781 181.421875 63.019531 181.140625 62.246094 180.820312 C 61.476562 180.5 60.722656 180.140625 59.988281 179.746094 C 59.253906 179.351562 58.539062 178.925781 57.84375 178.460938 C 57.152344 177.996094 56.480469 177.496094 55.835938 176.96875 C 55.191406 176.4375 54.574219 175.878906 53.984375 175.285156 C 53.394531 174.695312 52.835938 174.078125 52.308594 173.433594 C 51.777344 172.789062 51.28125 172.117188 50.816406 171.421875 C 50.355469 170.730469 49.925781 170.015625 49.53125 169.277344 C 49.140625 168.542969 48.785156 167.789062 48.464844 167.015625 C 48.144531 166.246094 47.863281 165.460938 47.621094 164.664062 C 47.378906 163.863281 47.175781 163.054688 47.011719 162.238281 C 46.851562 161.417969 46.726562 160.59375 46.644531 159.761719 C 46.5625 158.933594 46.523438 158.101562 46.523438 157.265625 C 46.523438 135.65625 62.4375 116.996094 85.277344 108.601562 C 86.21875 109.394531 87.191406 110.148438 88.199219 110.855469 C 89.203125 111.566406 90.238281 112.230469 91.304688 112.851562 C 92.367188 113.46875 93.457031 114.039062 94.570312 114.5625 C 95.6875 115.085938 96.820312 115.558594 97.976562 115.984375 C 99.132812 116.40625 100.304688 116.777344 101.496094 117.097656 C 102.683594 117.417969 103.882812 117.6875 105.09375 117.902344 C 106.308594 118.117188 107.527344 118.277344 108.753906 118.386719 C 109.980469 118.492188 111.207031 118.546875 112.441406 118.546875 C 113.671875 118.546875 114.898438 118.492188 116.125 118.386719 C 117.351562 118.277344 118.570312 118.117188 119.785156 117.902344 C 120.996094 117.6875 122.195312 117.417969 123.386719 117.097656 C 124.574219 116.777344 125.746094 116.40625 126.902344 115.984375 C 128.058594 115.558594 129.195312 115.085938 130.308594 114.5625 C 131.421875 114.039062 132.511719 113.46875 133.578125 112.851562 C 134.640625 112.230469 135.675781 111.566406 136.683594 110.855469 C 137.6875 110.148438 138.660156 109.394531 139.601562 108.601562 C 162.441406 116.996094 178.359375 135.65625 178.359375 157.265625 C 178.359375 158.101562 178.316406 158.933594 178.234375 159.761719 C 178.152344 160.59375 178.03125 161.417969 177.867188 162.238281 C 177.703125 163.054688 177.5 163.863281 177.257812 164.664062 C 177.015625 165.460938 176.734375 166.246094 176.414062 167.015625 C 176.097656 167.789062 175.742188 168.542969 175.347656 169.277344 C 174.953125 170.015625 174.527344 170.730469 174.0625 171.421875 C 173.597656 172.117188 173.101562 172.789062 172.574219 173.433594 C 172.042969 174.078125 171.484375 174.695312 170.894531 175.285156 C 170.304688 175.878906 169.6875 176.4375 169.042969 176.96875 C 168.398438 177.496094 167.730469 177.996094 167.035156 178.460938 C 166.34375 178.925781 165.628906 179.351562 164.890625 179.746094 C 164.15625 180.140625 163.402344 180.5 162.632812 180.820312 C 161.863281 181.140625 161.078125 181.421875 160.277344 181.664062 C 159.480469 181.910156 158.671875 182.113281 157.855469 182.277344 C 157.035156 182.441406 156.210938 182.566406 155.378906 182.648438 C 154.550781 182.730469 153.71875 182.773438 152.882812 182.773438 Z M 152.882812 182.773438 " fill-opacity="1" fill-rule="nonzero"/></g></svg>