<svg xmlns="http://www.w3.org/2000/svg" xmlns:xlink="http://www.w3.org/1999/xlink" width="100" zoomAndPan="magnify" viewBox="0 0 75 74.999997" height="100" preserveAspectRatio="xMidYMid meet" version="1.0"><defs><g/></defs><path fill="#ffd54f" d="M 75 37.5 C 75 38.726562 74.941406 39.953125 74.820312 41.175781 C 74.699219 42.398438 74.519531 43.609375 74.28125 44.816406 C 74.039062 46.019531 73.742188 47.210938 73.386719 48.386719 C 73.027344 49.5625 72.617188 50.714844 72.144531 51.851562 C 71.675781 52.984375 71.152344 54.09375 70.570312 55.175781 C 69.992188 56.261719 69.363281 57.3125 68.679688 58.332031 C 67.996094 59.355469 67.265625 60.339844 66.488281 61.289062 C 65.707031 62.238281 64.886719 63.148438 64.015625 64.015625 C 63.148438 64.886719 62.238281 65.707031 61.289062 66.488281 C 60.339844 67.265625 59.355469 67.996094 58.332031 68.679688 C 57.3125 69.363281 56.261719 69.992188 55.175781 70.570312 C 54.09375 71.152344 52.984375 71.675781 51.851562 72.144531 C 50.714844 72.617188 49.5625 73.027344 48.386719 73.386719 C 47.210938 73.742188 46.019531 74.039062 44.816406 74.28125 C 43.609375 74.519531 42.398438 74.699219 41.175781 74.820312 C 39.953125 74.941406 38.726562 75 37.5 75 C 36.273438 75 35.046875 74.941406 33.824219 74.820312 C 32.601562 74.699219 31.390625 74.519531 30.183594 74.28125 C 28.980469 74.039062 27.789062 73.742188 26.613281 73.386719 C 25.4375 73.027344 24.285156 72.617188 23.148438 72.144531 C 22.015625 71.675781 20.90625 71.152344 19.824219 70.570312 C 18.738281 69.992188 17.6875 69.363281 16.667969 68.679688 C 15.644531 67.996094 14.660156 67.265625 13.710938 66.488281 C 12.761719 65.707031 11.851562 64.886719 10.984375 64.015625 C 10.113281 63.148438 9.292969 62.238281 8.511719 61.289062 C 7.734375 60.339844 7.003906 59.355469 6.320312 58.332031 C 5.636719 57.3125 5.007812 56.261719 4.429688 55.175781 C 3.847656 54.09375 3.324219 52.984375 2.855469 51.851562 C 2.382812 50.714844 1.972656 49.5625 1.613281 48.386719 C 1.257812 47.210938 0.960938 46.019531 0.71875 44.816406 C 0.480469 43.609375 0.300781 42.398438 0.179688 41.175781 C 0.0585938 39.953125 0 38.726562 0 37.5 C 0 36.273438 0.0585938 35.046875 0.179688 33.824219 C 0.300781 32.601562 0.480469 31.390625 0.71875 30.183594 C 0.960938 28.980469 1.257812 27.789062 1.613281 26.613281 C 1.972656 25.4375 2.382812 24.285156 2.855469 23.148438 C 3.324219 22.015625 3.847656 20.90625 4.429688 19.824219 C 5.007812 18.738281 5.636719 17.6875 6.320312 16.667969 C 7.003906 15.644531 7.734375 14.660156 8.511719 13.710938 C 9.292969 12.761719 10.113281 11.851562 10.984375 10.984375 C 11.851562 10.113281 12.761719 9.292969 13.710938 8.511719 C 14.660156 7.734375 15.644531 7.003906 16.667969 6.320312 C 17.6875 5.636719 18.738281 5.007812 19.824219 4.429688 C 20.90625 3.847656 22.015625 3.324219 23.148438 2.855469 C 24.285156 2.382812 25.4375 1.972656 26.613281 1.613281 C 27.789062 1.257812 28.980469 0.960938 30.183594 0.71875 C 31.390625 0.480469 32.601562 0.300781 33.824219 0.179688 C 35.046875 0.0585938 36.273438 0 37.5 0 C 38.726562 0 39.953125 0.0585938 41.175781 0.179688 C 42.398438 0.300781 43.609375 0.480469 44.816406 0.71875 C 46.019531 0.960938 47.210938 1.257812 48.386719 1.613281 C 49.5625 1.972656 50.714844 2.382812 51.851562 2.855469 C 52.984375 3.324219 54.09375 3.847656 55.175781 4.429688 C 56.261719 5.007812 57.3125 5.636719 58.332031 6.320312 C 59.355469 7.003906 60.339844 7.734375 61.289062 8.511719 C 62.238281 9.292969 63.148438 10.113281 64.015625 10.984375 C 64.886719 11.851562 65.707031 12.761719 66.488281 13.710938 C 67.265625 14.660156 67.996094 15.644531 68.679688 16.667969 C 69.363281 17.6875 69.992188 18.738281 70.570312 19.824219 C 71.152344 20.90625 71.675781 22.015625 72.144531 23.148438 C 72.617188 24.285156 73.027344 25.4375 73.386719 26.613281 C 73.742188 27.789062 74.039062 28.980469 74.28125 30.183594 C 74.519531 31.390625 74.699219 32.601562 74.820312 33.824219 C 74.941406 35.046875 75 36.273438 75 37.5 Z M 75 37.5 " fill-opacity="1" fill-rule="nonzero"/><path fill="#ffe082" d="M 72.824219 37.5 C 72.824219 38.65625 72.769531 39.8125 72.65625 40.960938 C 72.542969 42.113281 72.371094 43.257812 72.148438 44.390625 C 71.921875 45.527344 71.640625 46.648438 71.304688 47.753906 C 70.96875 48.863281 70.578125 49.949219 70.136719 51.019531 C 69.695312 52.085938 69.199219 53.132812 68.65625 54.152344 C 68.109375 55.171875 67.515625 56.164062 66.871094 57.125 C 66.230469 58.089844 65.542969 59.015625 64.808594 59.910156 C 64.074219 60.804688 63.296875 61.660156 62.480469 62.480469 C 61.660156 63.296875 60.804688 64.074219 59.910156 64.808594 C 59.015625 65.542969 58.089844 66.230469 57.125 66.871094 C 56.164062 67.515625 55.171875 68.109375 54.152344 68.65625 C 53.132812 69.199219 52.085938 69.695312 51.019531 70.136719 C 49.949219 70.578125 48.863281 70.96875 47.753906 71.304688 C 46.648438 71.640625 45.527344 71.921875 44.390625 72.148438 C 43.257812 72.371094 42.113281 72.542969 40.960938 72.65625 C 39.8125 72.769531 38.65625 72.824219 37.5 72.824219 C 36.34375 72.824219 35.1875 72.769531 34.039062 72.65625 C 32.886719 72.542969 31.742188 72.371094 30.609375 72.148438 C 29.472656 71.921875 28.351562 71.640625 27.246094 71.304688 C 26.136719 70.96875 25.050781 70.578125 23.980469 70.136719 C 22.914062 69.695312 21.867188 69.199219 20.847656 68.65625 C 19.828125 68.109375 18.835938 67.515625 17.875 66.871094 C 16.910156 66.230469 15.984375 65.542969 15.089844 64.808594 C 14.195312 64.074219 13.339844 63.296875 12.519531 62.480469 C 11.703125 61.660156 10.925781 60.804688 10.191406 59.910156 C 9.457031 59.015625 8.769531 58.089844 8.128906 57.125 C 7.484375 56.164062 6.890625 55.171875 6.34375 54.152344 C 5.800781 53.132812 5.304688 52.085938 4.863281 51.019531 C 4.421875 49.949219 4.03125 48.863281 3.695312 47.753906 C 3.359375 46.648438 3.078125 45.527344 2.851562 44.390625 C 2.628906 43.257812 2.457031 42.113281 2.34375 40.960938 C 2.230469 39.8125 2.175781 38.65625 2.175781 37.5 C 2.175781 36.34375 2.230469 35.1875 2.34375 34.039062 C 2.457031 32.886719 2.628906 31.742188 2.851562 30.609375 C 3.078125 29.472656 3.359375 28.351562 3.695312 27.246094 C 4.03125 26.136719 4.421875 25.050781 4.863281 23.980469 C 5.304688 22.914062 5.800781 21.867188 6.34375 20.847656 C 6.890625 19.828125 7.484375 18.835938 8.128906 17.875 C 8.769531 16.910156 9.457031 15.984375 10.191406 15.089844 C 10.925781 14.195312 11.703125 13.339844 12.519531 12.519531 C 13.339844 11.703125 14.195312 10.925781 15.089844 10.191406 C 15.984375 9.457031 16.910156 8.769531 17.875 8.128906 C 18.835938 7.484375 19.828125 6.890625 20.847656 6.34375 C 21.867188 5.800781 22.914062 5.304688 23.980469 4.863281 C 25.050781 4.421875 26.136719 4.03125 27.246094 3.695312 C 28.351562 3.359375 29.472656 3.078125 30.609375 2.851562 C 31.742188 2.628906 32.886719 2.457031 34.039062 2.34375 C 35.1875 2.230469 36.34375 2.175781 37.5 2.175781 C 38.65625 2.175781 39.8125 2.230469 40.960938 2.34375 C 42.113281 2.457031 43.257812 2.628906 44.390625 2.851562 C 45.527344 3.078125 46.648438 3.359375 47.753906 3.695312 C 48.863281 4.03125 49.949219 4.421875 51.019531 4.863281 C 52.085938 5.304688 53.132812 5.800781 54.152344 6.34375 C 55.171875 6.890625 56.164062 7.484375 57.125 8.128906 C 58.089844 8.769531 59.015625 9.457031 59.910156 10.191406 C 60.804688 10.925781 61.660156 11.703125 62.480469 12.519531 C 63.296875 13.339844 64.074219 14.195312 64.808594 15.089844 C 65.542969 15.984375 66.230469 16.910156 66.871094 17.875 C 67.515625 18.835938 68.109375 19.828125 68.65625 20.847656 C 69.199219 21.867188 69.695312 22.914062 70.136719 23.980469 C 70.578125 25.050781 70.96875 26.136719 71.304688 27.246094 C 71.640625 28.351562 71.921875 29.472656 72.148438 30.609375 C 72.371094 31.742188 72.542969 32.886719 72.65625 34.039062 C 72.769531 35.1875 72.824219 36.34375 72.824219 37.5 Z M 72.824219 37.5 " fill-opacity="1" fill-rule="nonzero"/><path fill="#ffe082" d="M 72.824219 37.5 C 72.824219 38.65625 72.769531 39.8125 72.65625 40.960938 C 72.542969 42.113281 72.371094 43.257812 72.148438 44.390625 C 71.921875 45.527344 71.640625 46.648438 71.304688 47.753906 C 70.96875 48.863281 70.578125 49.949219 70.136719 51.019531 C 69.695312 52.085938 69.199219 53.132812 68.65625 54.152344 C 68.109375 55.171875 67.515625 56.164062 66.871094 57.125 C 66.230469 58.089844 65.542969 59.015625 64.808594 59.910156 C 64.074219 60.804688 63.296875 61.660156 62.480469 62.480469 C 61.660156 63.296875 60.804688 64.074219 59.910156 64.808594 C 59.015625 65.542969 58.089844 66.230469 57.125 66.871094 C 56.164062 67.515625 55.171875 68.109375 54.152344 68.65625 C 53.132812 69.199219 52.085938 69.695312 51.019531 70.136719 C 49.949219 70.578125 48.863281 70.96875 47.753906 71.304688 C 46.648438 71.640625 45.527344 71.921875 44.390625 72.148438 C 43.257812 72.371094 42.113281 72.542969 40.960938 72.65625 C 39.8125 72.769531 38.65625 72.824219 37.5 72.824219 C 36.34375 72.824219 35.1875 72.769531 34.039062 72.65625 C 32.886719 72.542969 31.742188 72.371094 30.609375 72.148438 C 29.472656 71.921875 28.351562 71.640625 27.246094 71.304688 C 26.136719 70.96875 25.050781 70.578125 23.980469 70.136719 C 22.914062 69.695312 21.867188 69.199219 20.847656 68.65625 C 19.828125 68.109375 18.835938 67.515625 17.875 66.871094 C 16.910156 66.230469 15.984375 65.542969 15.089844 64.808594 C 14.195312 64.074219 13.339844 63.296875 12.519531 62.480469 C 11.703125 61.660156 10.925781 60.804688 10.191406 59.910156 C 9.457031 59.015625 8.769531 58.089844 8.128906 57.125 C 7.484375 56.164062 6.890625 55.171875 6.34375 54.152344 C 5.800781 53.132812 5.304688 52.085938 4.863281 51.019531 C 4.421875 49.949219 4.03125 48.863281 3.695312 47.753906 C 3.359375 46.648438 3.078125 45.527344 2.851562 44.390625 C 2.628906 43.257812 2.457031 42.113281 2.34375 40.960938 C 2.230469 39.8125 2.175781 38.65625 2.175781 37.5 C 2.175781 36.34375 2.230469 35.1875 2.34375 34.039062 C 2.457031 32.886719 2.628906 31.742188 2.851562 30.609375 C 3.078125 29.472656 3.359375 28.351562 3.695312 27.246094 C 4.03125 26.136719 4.421875 25.050781 4.863281 23.980469 C 5.304688 22.914062 5.800781 21.867188 6.34375 20.847656 C 6.890625 19.828125 7.484375 18.835938 8.128906 17.875 C 8.769531 16.910156 9.457031 15.984375 10.191406 15.089844 C 10.925781 14.195312 11.703125 13.339844 12.519531 12.519531 C 13.339844 11.703125 14.195312 10.925781 15.089844 10.191406 C 15.984375 9.457031 16.910156 8.769531 17.875 8.128906 C 18.835938 7.484375 19.828125 6.890625 20.847656 6.34375 C 21.867188 5.800781 22.914062 5.304688 23.980469 4.863281 C 25.050781 4.421875 26.136719 4.03125 27.246094 3.695312 C 28.351562 3.359375 29.472656 3.078125 30.609375 2.851562 C 31.742188 2.628906 32.886719 2.457031 34.039062 2.34375 C 35.1875 2.230469 36.34375 2.175781 37.5 2.175781 C 38.65625 2.175781 39.8125 2.230469 40.960938 2.34375 C 42.113281 2.457031 43.257812 2.628906 44.390625 2.851562 C 45.527344 3.078125 46.648438 3.359375 47.753906 3.695312 C 48.863281 4.03125 49.949219 4.421875 51.019531 4.863281 C 52.085938 5.304688 53.132812 5.800781 54.152344 6.34375 C 55.171875 6.890625 56.164062 7.484375 57.125 8.128906 C 58.089844 8.769531 59.015625 9.457031 59.910156 10.191406 C 60.804688 10.925781 61.660156 11.703125 62.480469 12.519531 C 63.296875 13.339844 64.074219 14.195312 64.808594 15.089844 C 65.542969 15.984375 66.230469 16.910156 66.871094 17.875 C 67.515625 18.835938 68.109375 19.828125 68.65625 20.847656 C 69.199219 21.867188 69.695312 22.914062 70.136719 23.980469 C 70.578125 25.050781 70.96875 26.136719 71.304688 27.246094 C 71.640625 28.351562 71.921875 29.472656 72.148438 30.609375 C 72.371094 31.742188 72.542969 32.886719 72.65625 34.039062 C 72.769531 35.1875 72.824219 36.34375 72.824219 37.5 Z M 72.824219 37.5 " fill-opacity="1" fill-rule="nonzero"/><path fill="#ffb300" d="M 67.390625 37.5 C 67.390625 38.480469 67.34375 39.457031 67.246094 40.429688 C 67.152344 41.402344 67.007812 42.371094 66.816406 43.332031 C 66.625 44.292969 66.386719 45.238281 66.105469 46.175781 C 65.820312 47.113281 65.492188 48.035156 65.117188 48.9375 C 64.742188 49.84375 64.324219 50.726562 63.863281 51.589844 C 63.398438 52.453125 62.898438 53.292969 62.355469 54.105469 C 61.808594 54.921875 61.226562 55.707031 60.605469 56.460938 C 59.984375 57.21875 59.328125 57.945312 58.636719 58.636719 C 57.945312 59.328125 57.21875 59.984375 56.460938 60.605469 C 55.707031 61.226562 54.921875 61.808594 54.105469 62.355469 C 53.292969 62.898438 52.453125 63.398438 51.589844 63.863281 C 50.726562 64.324219 49.84375 64.742188 48.9375 65.117188 C 48.035156 65.492188 47.113281 65.820312 46.175781 66.105469 C 45.238281 66.386719 44.292969 66.625 43.332031 66.816406 C 42.371094 67.007812 41.402344 67.152344 40.429688 67.246094 C 39.457031 67.34375 38.480469 67.390625 37.5 67.390625 C 36.519531 67.390625 35.542969 67.34375 34.570312 67.246094 C 33.597656 67.152344 32.628906 67.007812 31.667969 66.816406 C 30.707031 66.625 29.761719 66.386719 28.824219 66.105469 C 27.886719 65.820312 26.964844 65.492188 26.0625 65.117188 C 25.15625 64.742188 24.273438 64.324219 23.410156 63.863281 C 22.546875 63.398438 21.707031 62.898438 20.894531 62.355469 C 20.078125 61.808594 19.292969 61.226562 18.539062 60.605469 C 17.78125 59.984375 17.054688 59.328125 16.363281 58.636719 C 15.671875 57.945312 15.015625 57.21875 14.394531 56.460938 C 13.773438 55.707031 13.191406 54.921875 12.644531 54.105469 C 12.101562 53.292969 11.601562 52.453125 11.136719 51.589844 C 10.675781 50.726562 10.257812 49.84375 9.882812 48.9375 C 9.507812 48.035156 9.179688 47.113281 8.894531 46.175781 C 8.613281 45.238281 8.375 44.292969 8.183594 43.332031 C 7.992188 42.371094 7.847656 41.402344 7.753906 40.429688 C 7.65625 39.457031 7.609375 38.480469 7.609375 37.5 C 7.609375 36.519531 7.65625 35.542969 7.753906 34.570312 C 7.847656 33.597656 7.992188 32.628906 8.183594 31.667969 C 8.375 30.707031 8.613281 29.761719 8.894531 28.824219 C 9.179688 27.886719 9.507812 26.964844 9.882812 26.0625 C 10.257812 25.15625 10.675781 24.273438 11.136719 23.410156 C 11.601562 22.546875 12.101562 21.707031 12.644531 20.894531 C 13.191406 20.078125 13.773438 19.292969 14.394531 18.539062 C 15.015625 17.78125 15.671875 17.054688 16.363281 16.363281 C 17.054688 15.671875 17.78125 15.015625 18.539062 14.394531 C 19.292969 13.773438 20.078125 13.191406 20.894531 12.644531 C 21.707031 12.101562 22.546875 11.601562 23.410156 11.136719 C 24.273438 10.675781 25.15625 10.257812 26.0625 9.882812 C 26.964844 9.507812 27.886719 9.179688 28.824219 8.894531 C 29.761719 8.613281 30.707031 8.375 31.667969 8.183594 C 32.628906 7.992188 33.597656 7.847656 34.570312 7.753906 C 35.542969 7.65625 36.519531 7.609375 37.5 7.609375 C 38.480469 7.609375 39.457031 7.65625 40.429688 7.753906 C 41.402344 7.847656 42.371094 7.992188 43.332031 8.183594 C 44.292969 8.375 45.238281 8.613281 46.175781 8.894531 C 47.113281 9.179688 48.035156 9.507812 48.9375 9.882812 C 49.84375 10.257812 50.726562 10.675781 51.589844 11.136719 C 52.453125 11.601562 53.292969 12.101562 54.105469 12.644531 C 54.921875 13.191406 55.707031 13.773438 56.460938 14.394531 C 57.21875 15.015625 57.945312 15.671875 58.636719 16.363281 C 59.328125 17.054688 59.984375 17.78125 60.605469 18.539062 C 61.226562 19.292969 61.808594 20.078125 62.355469 20.894531 C 62.898438 21.707031 63.398438 22.546875 63.863281 23.410156 C 64.324219 24.273438 64.742188 25.15625 65.117188 26.0625 C 65.492188 26.964844 65.820312 27.886719 66.105469 28.824219 C 66.386719 29.761719 66.625 30.707031 66.816406 31.667969 C 67.007812 32.628906 67.152344 33.597656 67.246094 34.570312 C 67.34375 35.542969 67.390625 36.519531 67.390625 37.5 Z M 67.390625 37.5 " fill-opacity="1" fill-rule="nonzero"/><g fill="#ffe082" fill-opacity="1"><g transform="translate(19.87207, 55.124919)"><g><path d="M 28.125 -8.3125 C 28.488281 -8.3125 28.804688 -8.171875 29.078125 -7.890625 L 31.65625 -5.09375 C 30.226562 -3.320312 28.46875 -1.960938 26.375 -1.015625 C 24.289062 -0.078125 21.785156 0.390625 18.859375 0.390625 C 16.242188 0.390625 13.890625 -0.0546875 11.796875 -0.953125 C 9.710938 -1.847656 7.929688 -3.085938 6.453125 -4.671875 C 4.972656 -6.265625 3.835938 -8.164062 3.046875 -10.375 C 2.265625 -12.59375 1.875 -15.007812 1.875 -17.625 C 1.875 -20.269531 2.296875 -22.691406 3.140625 -24.890625 C 3.984375 -27.097656 5.171875 -29 6.703125 -30.59375 C 8.242188 -32.1875 10.078125 -33.425781 12.203125 -34.3125 C 14.335938 -35.195312 16.695312 -35.640625 19.28125 -35.640625 C 21.84375 -35.640625 24.117188 -35.210938 26.109375 -34.359375 C 28.109375 -33.515625 29.804688 -32.410156 31.203125 -31.046875 L 29 -28 C 28.875 -27.8125 28.707031 -27.644531 28.5 -27.5 C 28.300781 -27.351562 28.023438 -27.28125 27.671875 -27.28125 C 27.421875 -27.28125 27.164062 -27.347656 26.90625 -27.484375 C 26.644531 -27.617188 26.359375 -27.785156 26.046875 -27.984375 C 25.742188 -28.191406 25.390625 -28.414062 24.984375 -28.65625 C 24.578125 -28.90625 24.101562 -29.128906 23.5625 -29.328125 C 23.03125 -29.535156 22.410156 -29.707031 21.703125 -29.84375 C 20.992188 -29.976562 20.175781 -30.046875 19.25 -30.046875 C 17.675781 -30.046875 16.234375 -29.765625 14.921875 -29.203125 C 13.617188 -28.648438 12.492188 -27.835938 11.546875 -26.765625 C 10.609375 -25.703125 9.878906 -24.40625 9.359375 -22.875 C 8.835938 -21.34375 8.578125 -19.59375 8.578125 -17.625 C 8.578125 -15.644531 8.859375 -13.878906 9.421875 -12.328125 C 9.984375 -10.785156 10.742188 -9.484375 11.703125 -8.421875 C 12.660156 -7.367188 13.785156 -6.5625 15.078125 -6 C 16.378906 -5.445312 17.78125 -5.171875 19.28125 -5.171875 C 20.175781 -5.171875 20.984375 -5.21875 21.703125 -5.3125 C 22.429688 -5.40625 23.097656 -5.554688 23.703125 -5.765625 C 24.316406 -5.984375 24.894531 -6.257812 25.4375 -6.59375 C 25.976562 -6.925781 26.519531 -7.335938 27.0625 -7.828125 C 27.21875 -7.972656 27.382812 -8.085938 27.5625 -8.171875 C 27.75 -8.265625 27.9375 -8.3125 28.125 -8.3125 Z M 28.125 -8.3125 "/></g></g></g></svg>