<svg xmlns="http://www.w3.org/2000/svg" xmlns:xlink="http://www.w3.org/1999/xlink" width="300" zoomAndPan="magnify" viewBox="0 0 224.87999 225" height="300" preserveAspectRatio="xMidYMid meet" version="1.0"><defs><clipPath id="ffff60b540"><path d="M 20.464844 1.320312 L 204.113281 1.320312 L 204.113281 223.949219 L 20.464844 223.949219 Z M 20.464844 1.320312 " clip-rule="nonzero"/></clipPath><clipPath id="d99f6f4e29"><path d="M 77.191406 28.941406 L 147.6875 28.941406 L 147.6875 143.628906 L 77.191406 143.628906 Z M 77.191406 28.941406 " clip-rule="nonzero"/></clipPath><clipPath id="d00c12b02f"><path d="M 126.289062 28.941406 L 112.527344 28.941406 L 111.613281 29.546875 C 109.359375 31.023438 106.796875 32.414062 104.0625 33.671875 C 101.285156 34.972656 98.417969 36.144531 95.554688 37.1875 C 92.730469 38.1875 89.953125 39.054688 87.304688 39.707031 C 84.699219 40.355469 82.355469 40.789062 80.402344 41.050781 L 77.191406 41.441406 L 77.191406 60.933594 L 100.675781 60.933594 L 100.675781 120.449219 L 77.320312 120.449219 L 77.320312 143.628906 L 147.6875 143.628906 L 147.6875 120.449219 L 126.289062 120.449219 Z M 126.289062 28.941406 " clip-rule="nonzero"/></clipPath></defs><g clip-path="url(#ffff60b540)"><path fill="#ff4c6c" d="M 200.457031 1.320312 L 24.414062 1.320312 C 22.117188 1.320312 20.585938 2.851562 20.585938 5.144531 L 20.585938 219.460938 C 20.585938 220.992188 21.351562 222.136719 22.5 222.902344 C 23.648438 223.667969 25.179688 223.667969 26.328125 222.902344 L 112.4375 173.917969 L 198.542969 222.519531 C 199.308594 223.285156 199.691406 223.285156 200.457031 223.285156 C 201.222656 223.285156 201.605469 223.285156 202.371094 222.902344 C 203.519531 222.136719 204.285156 220.992188 204.285156 219.460938 L 204.285156 5.144531 C 204.285156 2.851562 202.753906 1.320312 200.457031 1.320312 Z M 200.457031 1.320312 " fill-opacity="1" fill-rule="nonzero"/></g><g clip-path="url(#d99f6f4e29)"><g clip-path="url(#d00c12b02f)"><path fill="#ffffff" d="M 77.191406 28.941406 L 147.6875 28.941406 L 147.6875 143.628906 L 77.191406 143.628906 Z M 77.191406 28.941406 " fill-opacity="1" fill-rule="nonzero"/></g></g></svg>