<svg xmlns="http://www.w3.org/2000/svg" xmlns:xlink="http://www.w3.org/1999/xlink" width="300" zoomAndPan="magnify" viewBox="0 0 224.87999 225" height="300" preserveAspectRatio="xMidYMid meet" version="1.0"><defs><clipPath id="409aaaa2d1"><path d="M 20.464844 1.320312 L 204 1.320312 L 204 223.949219 L 20.464844 223.949219 Z M 20.464844 1.320312 " clip-rule="nonzero"/></clipPath><clipPath id="4ed0bd8714"><path d="M 78.960938 27.667969 L 145.671875 27.667969 L 145.671875 134.859375 L 78.960938 134.859375 Z M 78.960938 27.667969 " clip-rule="nonzero"/></clipPath></defs><g clip-path="url(#409aaaa2d1)"><path fill="#ff4c6c" d="M 200.171875 1.320312 L 24.40625 1.320312 C 22.113281 1.320312 20.585938 2.851562 20.585938 5.152344 L 20.585938 219.734375 C 20.585938 221.269531 21.351562 222.417969 22.496094 223.183594 C 23.644531 223.949219 25.171875 223.949219 26.316406 223.183594 L 112.289062 174.136719 L 198.261719 222.800781 C 199.023438 223.566406 199.40625 223.566406 200.171875 223.566406 C 200.933594 223.566406 201.316406 223.566406 202.082031 223.183594 C 203.226562 222.417969 203.992188 221.269531 203.992188 219.734375 L 203.992188 5.152344 C 203.992188 2.851562 202.464844 1.320312 200.171875 1.320312 Z M 200.171875 1.320312 " fill-opacity="1" fill-rule="nonzero"/></g><g clip-path="url(#4ed0bd8714)"><path fill="#ffffff" d="M 98.972656 61.164062 C 98.972656 53.765625 104.949219 47.765625 112.316406 47.765625 C 119.683594 47.765625 125.660156 53.765625 125.660156 61.164062 C 125.660156 64.933594 124.167969 68.550781 121.515625 71.214844 L 78.960938 113.949219 L 78.960938 134.859375 L 145.671875 134.859375 L 145.671875 114.761719 L 106.453125 114.761719 L 135.667969 85.425781 C 142.074219 78.992188 145.671875 70.265625 145.671875 61.164062 C 145.671875 42.664062 130.738281 27.667969 112.316406 27.667969 C 93.894531 27.667969 78.960938 42.664062 78.960938 61.164062 Z M 98.972656 61.164062 " fill-opacity="1" fill-rule="nonzero"/></g></svg>