<svg xmlns="http://www.w3.org/2000/svg" xmlns:xlink="http://www.w3.org/1999/xlink" width="300" zoomAndPan="magnify" viewBox="0 0 224.87999 225" height="300" preserveAspectRatio="xMidYMid meet" version="1.0"><defs><clipPath id="e945c49050"><path d="M 20.464844 1.320312 L 204 1.320312 L 204 223.949219 L 20.464844 223.949219 Z M 20.464844 1.320312 " clip-rule="nonzero"/></clipPath><clipPath id="65d694206d"><path d="M 79.800781 34.757812 L 132.273438 34.757812 L 132.273438 132.957031 L 79.800781 132.957031 Z M 79.800781 34.757812 " clip-rule="nonzero"/></clipPath></defs><g clip-path="url(#e945c49050)"><path fill="#ff4c6c" d="M 200.171875 1.320312 L 24.40625 1.320312 C 22.113281 1.320312 20.585938 2.851562 20.585938 5.152344 L 20.585938 219.734375 C 20.585938 221.269531 21.351562 222.417969 22.496094 223.183594 C 23.644531 223.949219 25.171875 223.949219 26.316406 223.183594 L 112.289062 174.136719 L 198.261719 222.800781 C 199.023438 223.566406 199.40625 223.566406 200.171875 223.566406 C 200.933594 223.566406 201.316406 223.566406 202.082031 223.183594 C 203.226562 222.417969 203.992188 221.269531 203.992188 219.734375 L 203.992188 5.152344 C 203.992188 2.851562 202.464844 1.320312 200.171875 1.320312 Z M 200.171875 1.320312 " fill-opacity="1" fill-rule="nonzero"/></g><g clip-path="url(#65d694206d)"><path fill="#ffffff" d="M 95.585938 132.957031 L 132.25 132.957031 L 132.25 34.757812 L 79.824219 34.757812 L 79.824219 63.96875 L 95.585938 63.96875 Z M 95.585938 132.957031 " fill-opacity="1" fill-rule="nonzero"/></g></svg>