<svg xmlns="http://www.w3.org/2000/svg" xmlns:xlink="http://www.w3.org/1999/xlink" width="300" zoomAndPan="magnify" viewBox="0 0 224.87999 225" height="300" preserveAspectRatio="xMidYMid meet" version="1.0"><defs><clipPath id="cba80ffd97"><path d="M 20.464844 1.320312 L 204 1.320312 L 204 223.949219 L 20.464844 223.949219 Z M 20.464844 1.320312 " clip-rule="nonzero"/></clipPath><clipPath id="8e81e84837"><path d="M 75.214844 33.457031 L 149.425781 33.457031 L 149.425781 141.398438 L 75.214844 141.398438 Z M 75.214844 33.457031 " clip-rule="nonzero"/></clipPath></defs><g clip-path="url(#cba80ffd97)"><path fill="#ff4c6c" d="M 200.171875 1.320312 L 24.40625 1.320312 C 22.113281 1.320312 20.585938 2.851562 20.585938 5.152344 L 20.585938 219.734375 C 20.585938 221.269531 21.351562 222.417969 22.496094 223.183594 C 23.644531 223.949219 25.171875 223.949219 26.316406 223.183594 L 112.289062 174.136719 L 198.261719 222.800781 C 199.023438 223.566406 199.40625 223.566406 200.171875 223.566406 C 200.933594 223.566406 201.316406 223.566406 202.082031 223.183594 C 203.226562 222.417969 203.992188 221.269531 203.992188 219.734375 L 203.992188 5.152344 C 203.992188 2.851562 202.464844 1.320312 200.171875 1.320312 Z M 200.171875 1.320312 " fill-opacity="1" fill-rule="nonzero"/></g><g clip-path="url(#8e81e84837)"><path fill="#ffffff" d="M 78.585938 53.699219 L 114.894531 53.699219 L 98.824219 71.777344 L 98.824219 87.429688 L 112.320312 87.429688 C 121.632812 87.429688 129.183594 94.980469 129.183594 104.292969 C 129.183594 113.605469 121.632812 121.15625 112.320312 121.15625 C 103.003906 121.15625 95.453125 113.605469 95.453125 104.292969 L 75.214844 104.292969 C 75.214844 124.785156 91.824219 141.394531 112.320312 141.394531 C 132.8125 141.394531 149.425781 124.785156 149.425781 104.292969 C 149.425781 89.101562 140.292969 76.039062 127.214844 70.300781 L 146.050781 49.113281 L 146.050781 33.464844 L 78.585938 33.464844 Z M 78.585938 53.699219 " fill-opacity="1" fill-rule="nonzero"/></g></svg>