<svg xmlns="http://www.w3.org/2000/svg" xmlns:xlink="http://www.w3.org/1999/xlink" width="500" zoomAndPan="magnify" viewBox="0 0 375 225" height="300" preserveAspectRatio="xMidYMid meet" version="1.0"><defs><g/></defs><g fill="#03a9f4" fill-opacity="1"><g transform="translate(44.025044, 134.780734)"><g><path d="M 64.972656 -38.347656 C 62.265625 -25.296875 57.449219 -21.179688 53.417969 -20.585938 C 51.648438 -20.328125 50.4375 -21.054688 50.25 -22.332031 C 50.148438 -23.019531 50.246094 -23.738281 50.410156 -24.664062 L 53.4375 -37.5625 C 54.132812 -40.375 54.261719 -42.902344 53.929688 -45.164062 C 53.324219 -49.292969 51.390625 -52.222656 48.667969 -54.335938 C 54.144531 -59.457031 56.71875 -69.976562 55.695312 -76.957031 C 54.183594 -87.277344 44.386719 -91.765625 35.074219 -90.902344 C 34.582031 -90.832031 33.878906 -90.828125 32.992188 -90.699219 C 30.535156 -90.335938 26.859375 -89.398438 23.777344 -86.433594 C 22.953125 -88.625 19.828125 -90.074219 16.683594 -89.613281 C 13.636719 -89.164062 10.425781 -87.085938 9.503906 -82.433594 L -4.964844 -8.511719 C -5.113281 -7.484375 -5.179688 -6.570312 -5.066406 -5.785156 C -4.476562 -1.753906 -0.492188 0.0703125 3.441406 -0.503906 C 6.78125 -0.996094 9.964844 -3.269531 10.777344 -7.304688 L 18.503906 -46.394531 C 19.03125 -44.164062 20.914062 -40.222656 26.714844 -41.074219 C 28.285156 -41.304688 30.195312 -41.984375 32.539062 -43.132812 C 35.011719 -43.394531 36.714844 -42.039062 37.046875 -39.777344 C 37.21875 -38.597656 37.195312 -37.386719 36.890625 -36.039062 L 34.609375 -26.265625 C 34.070312 -23.773438 33.925781 -21.34375 34.226562 -19.277344 C 35.480469 -10.726562 43.15625 -6.328125 52.890625 -7.757812 C 63.605469 -9.328125 73.945312 -17.570312 77.382812 -37.960938 C 77.460938 -38.773438 77.542969 -39.589844 77.441406 -40.277344 C 76.9375 -43.71875 73.753906 -45.5625 70.804688 -45.128906 C 68.152344 -44.738281 65.644531 -42.664062 64.972656 -38.347656 Z M 19.867188 -53.527344 L 22.609375 -67.683594 C 24.320312 -72.457031 28.285156 -76.25 32.609375 -76.882812 C 36.34375 -77.433594 39.246094 -75.449219 39.765625 -71.910156 C 40.34375 -67.976562 38.933594 -61.84375 35.679688 -59.359375 C 33.5 -59.84375 31.378906 -59.933594 29.316406 -59.628906 C 25.285156 -59.039062 21.765625 -57.015625 19.867188 -53.527344 Z M 19.867188 -53.527344 "/></g></g></g><g fill="#03a9f4" fill-opacity="1"><g transform="translate(109.987382, 125.107743)"><g><path d="M 45.679688 -35.015625 C 43.023438 -22.980469 33.378906 -16.84375 25.023438 -15.621094 C 17.847656 -14.566406 12.820312 -17.34375 12.15625 -21.867188 C 12.027344 -22.75 11.996094 -23.652344 12.246094 -24.691406 L 12.757812 -26.675781 C 15.867188 -25.324219 19.582031 -24.664062 23.511719 -25.238281 C 32.457031 -26.550781 39.5 -33.308594 40.859375 -42.542969 C 41.074219 -44.484375 41.097656 -46.394531 40.851562 -48.066406 C 39.484375 -57.40625 31.058594 -63.5 19.949219 -61.871094 C 11.199219 -60.589844 3.394531 -54.222656 1.398438 -43.886719 L -1.9375 -26.226562 C -2.378906 -23.753906 -2.523438 -21.320312 -2.191406 -19.058594 C -0.476562 -7.359375 11.601562 -1.699219 25.953125 -3.804688 C 39.617188 -5.808594 54.167969 -14.773438 57.90625 -34.5 C 58.085938 -35.332031 58.082031 -36.03125 57.996094 -36.621094 C 57.546875 -39.671875 54.550781 -40.9375 51.601562 -40.503906 C 48.847656 -40.101562 46.117188 -38.195312 45.679688 -35.015625 Z M 21.355469 -50.230469 C 24.105469 -50.632812 26.207031 -48.632812 26.625 -45.78125 C 26.742188 -44.992188 26.757812 -44.191406 26.578125 -43.363281 C 26.070312 -39.976562 23.296875 -38.363281 20.347656 -37.929688 C 18.480469 -37.65625 16.554688 -37.777344 15.0625 -38.359375 L 16.261719 -44.5625 C 16.894531 -47.765625 19.09375 -49.898438 21.355469 -50.230469 Z M 21.355469 -50.230469 "/></g></g></g><g fill="#03a9f4" fill-opacity="1"><g transform="translate(156.583729, 118.274661)"><g><path d="M 56.765625 -42.265625 C 54.011719 -41.863281 51.210938 -39.746094 50.578125 -35.835938 C 48.519531 -23.183594 42.914062 -18.242188 38.492188 -17.59375 C 36.820312 -17.351562 35.707031 -18.089844 35.476562 -19.664062 C 35.363281 -20.449219 35.414062 -21.460938 35.550781 -22.585938 L 41.890625 -56.050781 C 42.109375 -57.289062 42.148438 -58.398438 42.003906 -59.382812 C 41.371094 -63.707031 37.5 -65.449219 33.863281 -64.917969 C 31.109375 -64.511719 28.445312 -62.816406 27.234375 -60.128906 C 24.980469 -61.105469 20.929688 -62.015625 15.917969 -61.28125 C 9.429688 -60.328125 2.871094 -55.753906 1.328125 -47.792969 L -4.035156 -19.996094 C -4.367188 -18.136719 -4.5 -16.3125 -4.242188 -14.542969 C -3.042969 -6.382812 4.523438 -0.664062 13.171875 -1.933594 C 17.792969 -2.609375 22.210938 -5.367188 25.371094 -9.144531 C 29.179688 -5.082031 36.273438 -5.320312 39.222656 -5.753906 C 47.382812 -6.949219 57.691406 -12.675781 61.648438 -29.527344 C 62.460938 -33.5625 63.183594 -36.179688 62.921875 -37.949219 C 62.433594 -41.289062 59.617188 -42.683594 56.765625 -42.265625 Z M 24.179688 -38.492188 L 21.609375 -23.152344 C 20.480469 -16.460938 16.960938 -14.4375 14.898438 -14.136719 C 12.734375 -13.816406 11.453125 -15.035156 11.121094 -17.296875 C 10.933594 -18.574219 11.054688 -19.796875 11.21875 -20.726562 L 14.613281 -41.40625 C 15.601562 -47.679688 18.238281 -48.867188 19.8125 -49.097656 C 21.679688 -49.371094 24.019531 -47.808594 24.507812 -44.464844 C 24.726562 -42.992188 24.605469 -41.066406 24.179688 -38.492188 Z M 24.179688 -38.492188 "/></g></g></g><g fill="#03a9f4" fill-opacity="1"><g transform="translate(208.193617, 110.706372)"><g><path d="M 57.679688 -42.199219 C 55.023438 -41.808594 52.472656 -40.03125 52.050781 -36.753906 C 49.355469 -24.308594 44.785156 -18.515625 40.359375 -17.867188 C 38.394531 -17.582031 37.109375 -18.796875 36.878906 -20.371094 C 36.792969 -20.960938 36.804688 -21.566406 37.023438 -22.800781 L 48.589844 -83.644531 C 48.808594 -84.882812 49.054688 -86.625 48.898438 -87.707031 C 48.277344 -91.933594 44.503906 -93.691406 41.0625 -93.1875 C 38.015625 -92.742188 35.496094 -90.0625 34.476562 -84.691406 L 29.25 -58.015625 C 25.824219 -60.828125 21.226562 -62.058594 16.605469 -61.382812 C 10.214844 -60.445312 3.855469 -55.898438 2.292969 -48.035156 L -3.152344 -20.125 C -3.566406 -18.15625 -3.574219 -16.144531 -3.3125 -14.375 C -2.042969 -5.726562 5.800781 -0.851562 14.253906 -2.089844 C 18.875 -2.769531 23.757812 -5.089844 27.125 -9.5 C 30.664062 -6.605469 35.683594 -5.234375 40.601562 -5.953125 C 50.332031 -7.382812 60.515625 -16.003906 64.277344 -36.238281 C 64.375 -36.957031 64.46875 -37.671875 64.382812 -38.261719 C 63.9375 -41.308594 60.726562 -42.648438 57.679688 -42.199219 Z M 14.195312 -17.546875 C 12.257812 -17.765625 11.550781 -19.167969 11.320312 -20.738281 C 11.132812 -22.019531 11.253906 -23.242188 11.417969 -24.167969 L 14.613281 -41.40625 C 15.730469 -47.496094 18.238281 -48.867188 19.8125 -49.097656 C 21.679688 -49.371094 24.019531 -47.808594 24.507812 -44.464844 C 24.726562 -42.992188 24.703125 -41.078125 24.179688 -38.492188 L 21.808594 -26.597656 C 19.925781 -18.890625 16.121094 -17.425781 14.195312 -17.546875 Z M 14.195312 -17.546875 "/></g></g></g><g fill="#03a9f4" fill-opacity="1"><g transform="translate(260.983151, 102.965096)"><g><path d="M 61.261719 -61.605469 L 32.261719 -57.351562 C 27.738281 -56.6875 24.296875 -59.597656 23.621094 -64.21875 C 22.582031 -71.296875 26.414062 -76.679688 33.195312 -77.671875 C 38.898438 -78.507812 42.480469 -74.617188 43.496094 -70.445312 C 45.71875 -62.136719 60.730469 -64.539062 57.035156 -76.046875 C 54.136719 -84.160156 47.050781 -92.757812 30.644531 -90.957031 C 20.773438 -89.808594 11.046875 -82.859375 8.269531 -70.300781 C 8.214844 -69.992188 8.171875 -69.585938 8.101562 -69.375 C 7.632812 -67.097656 7.53125 -64.371094 7.835938 -62.304688 C 8.351562 -58.765625 10.050781 -55.398438 12.339844 -52.824219 C 3.921875 -49.277344 -2.390625 -42.328125 -4.238281 -33.019531 L -4.988281 -29.898438 L -4.886719 -29.910156 C -5.621094 -26.691406 -5.679688 -23.667969 -5.292969 -21.015625 C -3.519531 -8.921875 8.480469 -1.746094 21.964844 -2.917969 C 29.324219 -4.097656 36.085938 -7.300781 40.730469 -12.601562 C 44.269531 -9.003906 49.839844 -7.308594 55.9375 -8.203125 C 69.503906 -10.191406 78.699219 -23.492188 80.304688 -37.886719 C 81.335938 -47.277344 69.90625 -45.800781 68.625 -38.082031 C 67.269531 -28.84375 62.265625 -21.882812 56.464844 -21.035156 C 53.613281 -20.617188 51.710938 -21.945312 51.410156 -24.007812 C 51.324219 -24.597656 51.222656 -25.285156 51.347656 -25.804688 C 52.78125 -33.148438 54.382812 -40.710938 55.816406 -48.050781 L 61.421875 -48.875 C 71.742188 -50.386719 70.304688 -62.929688 61.261719 -61.605469 Z M 21.917969 -15.566406 C 16.300781 -14.84375 11.496094 -18.15625 10.644531 -23.957031 C 10.402344 -25.625 10.421875 -27.539062 10.90625 -29.71875 L 11.238281 -31.574219 L 11.25 -31.476562 C 12.742188 -38.421875 19.246094 -42.691406 26.914062 -43.8125 L 40.777344 -45.847656 L 39 -36.046875 L 38.984375 -36.144531 C 36.335938 -23.402344 29.320312 -16.449219 21.917969 -15.566406 Z M 21.917969 -15.566406 "/></g></g></g><g fill="#03a9f4" fill-opacity="1"><g transform="translate(64.325062, 218.910066)"><g><path d="M 46.019531 -26.53125 L 57.734375 -84.285156 C 58.023438 -85.734375 58.019531 -87.136719 57.859375 -88.21875 C 57.167969 -92.9375 53.253906 -94.976562 49.421875 -94.414062 C 45.78125 -93.878906 42.40625 -90.875 41.375 -85.601562 L 30.472656 -31.882812 C 28.761719 -23.699219 22.871094 -16.609375 17.5625 -15.832031 C 15.300781 -15.5 13.792969 -16.886719 13.460938 -19.144531 C 13.332031 -20.03125 13.285156 -21.027344 13.519531 -22.167969 L 24.996094 -79.484375 C 25.289062 -80.933594 25.296875 -82.238281 25.136719 -83.320312 C 24.445312 -88.039062 20.417969 -90.160156 16.585938 -89.597656 C 12.949219 -89.0625 9.574219 -86.058594 8.539062 -80.785156 L -3.03125 -22.050781 C -3.5 -19.773438 -3.480469 -17.566406 -3.175781 -15.5 C -1.820312 -6.261719 6.585938 -0.964844 16.320312 -2.394531 C 22.808594 -3.34375 29.257812 -7.304688 33.464844 -12.839844 C 37.515625 -8.515625 44.238281 -6.488281 51.710938 -7.582031 C 63.210938 -9.269531 76.582031 -18.058594 80.003906 -35.128906 L 90.960938 -89.15625 C 91.25 -90.605469 91.246094 -92.011719 91.085938 -93.089844 C 90.394531 -97.808594 86.480469 -99.847656 82.648438 -99.285156 C 79.011719 -98.75 75.636719 -95.746094 74.601562 -90.472656 L 63.714844 -35.957031 C 61.8125 -26.335938 56.085938 -20.878906 51.074219 -20.140625 C 48.222656 -19.722656 46.207031 -21.136719 45.847656 -23.59375 C 45.71875 -24.480469 45.785156 -25.390625 46.019531 -26.53125 Z M 46.019531 -26.53125 "/></g></g></g><g fill="#03a9f4" fill-opacity="1"><g transform="translate(158.205898, 205.14299)"><g><path d="M 45.660156 -35.816406 C 43.339844 -25.636719 39.375 -17.722656 35.246094 -17.117188 C 33.871094 -16.917969 32.996094 -18.09375 32.792969 -19.46875 C 32.707031 -20.058594 32.691406 -20.859375 32.871094 -21.691406 L 36.304688 -38.664062 C 36.609375 -40.714844 36.742188 -42.542969 36.496094 -44.214844 C 35.125 -53.554688 22.753906 -55.757812 17.003906 -56.621094 C 17.183594 -57.449219 17.152344 -58.347656 17.035156 -59.136719 C 16.371094 -63.65625 11.78125 -66.902344 7.355469 -66.25 C 1.554688 -65.402344 -1.136719 -59.785156 -0.3125 -54.179688 C 0.046875 -51.722656 1.304688 -49.296875 3.167969 -47.5625 L -1.167969 -27.144531 C -1.25 -26.328125 -1.234375 -25.527344 -1.144531 -24.9375 C -0.671875 -21.691406 2.128906 -20.398438 4.882812 -20.800781 C 7.636719 -21.203125 10.253906 -23.195312 10.972656 -26.515625 L 14.316406 -42.066406 C 17.199219 -41.585938 20.9375 -41.429688 21.429688 -38.089844 C 21.5 -37.597656 21.488281 -36.992188 21.390625 -36.277344 L 18.824219 -23.648438 C 18.371094 -21.273438 18.28125 -19.148438 18.570312 -17.183594 C 19.824219 -8.632812 27.425781 -4.023438 35.585938 -5.21875 C 46.300781 -6.789062 54.636719 -17.753906 58 -35.21875 C 58.109375 -35.835938 58.136719 -36.34375 58.066406 -36.832031 C 57.632812 -39.78125 54.101562 -41.273438 50.953125 -40.8125 C 48.398438 -40.4375 46.113281 -38.898438 45.660156 -35.816406 Z M 45.660156 -35.816406 "/></g></g></g><g fill="#03a9f4" fill-opacity="1"><g transform="translate(204.703942, 198.324324)"><g><path d="M 16.65625 -70.628906 C 21.078125 -71.277344 24.183594 -75.449219 23.519531 -79.96875 C 22.871094 -84.394531 18.714844 -87.398438 14.292969 -86.75 C 9.867188 -86.101562 6.75 -82.03125 7.398438 -77.605469 C 8.0625 -73.082031 12.230469 -69.980469 16.65625 -70.628906 Z M 10.738281 -18.546875 L 17.023438 -51 C 17.230469 -52.335938 17.519531 -53.785156 17.375 -54.765625 C 16.742188 -59.09375 13.164062 -60.878906 9.824219 -60.386719 C 6.773438 -59.941406 3.847656 -57.300781 2.953125 -52.449219 C 1.164062 -42.75 -1.25 -30.445312 -3.054688 -20.839844 C -3.359375 -18.789062 -3.753906 -16.019531 -3.511719 -14.347656 C -2.15625 -5.105469 6.292969 -0.921875 15.335938 -2.25 C 24.96875 -3.660156 34.722656 -11.117188 38.621094 -32.476562 C 38.730469 -33.09375 38.742188 -33.699219 38.65625 -34.289062 C 38.207031 -37.335938 34.984375 -38.769531 32.035156 -38.339844 C 29.382812 -37.949219 26.929688 -36.183594 26.195312 -32.964844 C 23.449219 -19.507812 18.832031 -14.710938 14.898438 -14.136719 C 12.636719 -13.804688 10.945312 -15.0625 10.671875 -16.929688 C 10.601562 -17.421875 10.625 -17.925781 10.738281 -18.546875 Z M 10.738281 -18.546875 "/></g></g></g><g fill="#03a9f4" fill-opacity="1"><g transform="translate(231.835995, 194.345567)"><g><path d="M 31.03125 -32.867188 C 28.683594 -21.480469 23.253906 -15.359375 17.550781 -14.523438 C 14.011719 -14.003906 11.535156 -15.851562 11.144531 -18.503906 C 11.042969 -19.191406 11.125 -20.007812 11.21875 -20.726562 L 16.832031 -49.566406 L 23.222656 -50.503906 C 28.234375 -51.238281 30.371094 -55.167969 29.894531 -58.410156 C 29.519531 -60.964844 27.519531 -62.984375 23.78125 -62.433594 L 19.359375 -61.785156 L 23.132812 -81.921875 C 23.230469 -82.636719 23.242188 -83.242188 23.15625 -83.832031 C 22.621094 -87.46875 19.632812 -90.042969 15.308594 -89.410156 C 12.0625 -88.933594 9.640625 -86.269531 8.96875 -82.65625 L 4.316406 -59.582031 L 0.1875 -58.976562 C -5.121094 -58.195312 -6.890625 -54.523438 -6.429688 -51.375 C -6.027344 -48.625 -4.007812 -46.507812 -1.355469 -46.898438 L 1.890625 -47.375 L -2.894531 -22.472656 L -2.90625 -22.570312 C -3.347656 -20.09375 -3.425781 -17.875 -3.121094 -15.808594 C -1.652344 -5.78125 8.160156 -1.195312 18.285156 -2.679688 C 30.867188 -4.527344 40.019531 -15.410156 43.257812 -32.351562 C 43.351562 -33.070312 43.449219 -33.785156 43.363281 -34.375 C 42.929688 -37.324219 39.804688 -38.773438 36.757812 -38.328125 C 34.300781 -37.96875 31.75 -36.1875 31.03125 -32.867188 Z M 31.03125 -32.867188 "/></g></g></g><g fill="#03a9f4" fill-opacity="1"><g transform="translate(263.981574, 189.631605)"><g><path d="M 45.679688 -35.015625 C 43.023438 -22.980469 33.378906 -16.84375 25.023438 -15.621094 C 17.847656 -14.566406 12.820312 -17.34375 12.15625 -21.867188 C 12.027344 -22.75 11.996094 -23.652344 12.246094 -24.691406 L 12.757812 -26.675781 C 15.867188 -25.324219 19.582031 -24.664062 23.511719 -25.238281 C 32.457031 -26.550781 39.5 -33.308594 40.859375 -42.542969 C 41.074219 -44.484375 41.097656 -46.394531 40.851562 -48.066406 C 39.484375 -57.40625 31.058594 -63.5 19.949219 -61.871094 C 11.199219 -60.589844 3.394531 -54.222656 1.398438 -43.886719 L -1.9375 -26.226562 C -2.378906 -23.753906 -2.523438 -21.320312 -2.191406 -19.058594 C -0.476562 -7.359375 11.601562 -1.699219 25.953125 -3.804688 C 39.617188 -5.808594 54.167969 -14.773438 57.90625 -34.5 C 58.085938 -35.332031 58.082031 -36.03125 57.996094 -36.621094 C 57.546875 -39.671875 54.550781 -40.9375 51.601562 -40.503906 C 48.847656 -40.101562 46.117188 -38.195312 45.679688 -35.015625 Z M 21.355469 -50.230469 C 24.105469 -50.632812 26.207031 -48.632812 26.625 -45.78125 C 26.742188 -44.992188 26.757812 -44.191406 26.578125 -43.363281 C 26.070312 -39.976562 23.296875 -38.363281 20.347656 -37.929688 C 18.480469 -37.65625 16.554688 -37.777344 15.0625 -38.359375 L 16.261719 -44.5625 C 16.894531 -47.765625 19.09375 -49.898438 21.355469 -50.230469 Z M 21.355469 -50.230469 "/></g></g></g></svg>